<?xml version="1.0" encoding="UTF-8"?>
<svg version="1.1" xmlns="http://www.w3.org/2000/svg" width="512" height="512">
<path d="M0 0 C1.31871094 0.01244751 1.31871094 0.01244751 2.6640625 0.02514648 C9.48951438 0.20247193 15.02515598 1.2533047 21.125 4.4375 C22.50945312 5.07945312 22.50945312 5.07945312 23.921875 5.734375 C58.27667897 23.36620561 73.75011376 67.96936763 84.7265625 102.03125 C85.1940811 103.49956361 85.66080285 104.96813296 86.125 106.4375 C91.9252758 105.8094896 97.58754159 104.79880761 103.31079102 103.67260742 C136.89809213 97.10392604 176.47915739 92.61272606 207.125 111.4375 C218.8575134 120.2646684 225.85883376 130.46123439 228.5 144.9375 C232.09165862 175.10743244 215.73800381 203.30787263 198.125 226.4375 C197.42761719 227.3553125 196.73023438 228.273125 196.01171875 229.21875 C194.09309637 231.66568869 192.12713295 234.05836578 190.125 236.4375 C189.65529785 236.99598633 189.1855957 237.55447266 188.70166016 238.12988281 C187.11848354 240.00745383 185.52953756 241.87993761 183.9375 243.75 C183.43798828 244.33740967 182.93847656 244.92481934 182.42382812 245.5300293 C179.45617265 248.98620195 176.38788832 252.25812254 173.125 255.4375 C174.77678352 259.62269384 177.86043251 262.46002911 180.9375 265.625 C206.63785281 292.72175904 229.14330274 326.72740947 228.4375 365.12890625 C227.89141345 378.09163563 221.84835567 388.60685487 212.57421875 397.45703125 C189.07726128 416.45696336 156.03780393 416.26575717 127.43359375 413.28125 C118.33779834 412.17566729 109.35282889 410.31258186 100.38208008 408.47021484 C99.10872803 408.20934082 97.83537598 407.9484668 96.5234375 407.6796875 C95.38567871 407.4410498 94.24791992 407.20241211 93.07568359 406.95654297 C89.96774548 406.32200263 89.96774548 406.32200263 86.125 406.4375 C85.90996826 407.12448975 85.69493652 407.81147949 85.47338867 408.51928711 C74.13980698 444.39954507 58.60157987 488.4246024 23.125 507.4375 C11.68437186 513.15781407 -0.59887767 514.23847814 -13.21484375 511.7890625 C-15.91443027 510.86145127 -18.34549361 509.75793415 -20.875 508.4375 C-21.79796875 508.00953125 -22.7209375 507.5815625 -23.671875 507.140625 C-58.30995714 489.36340824 -73.62689007 444.48269794 -84.6953125 410.15234375 C-85.08460938 408.92644531 -85.47390625 407.70054687 -85.875 406.4375 C-91.6752758 407.0655104 -97.33754159 408.07619239 -103.06079102 409.20239258 C-136.64809213 415.77107396 -176.22915739 420.26227394 -206.875 401.4375 C-217.59440779 393.3725599 -224.9934575 383.67392721 -227.875 370.4375 C-230.95045914 331.86912133 -210.302735 300.75003918 -186.51074219 272.33300781 C-183.09882252 268.37925493 -179.47680813 264.6213725 -175.82421875 260.890625 C-173.46026201 258.43775405 -173.46026201 258.43775405 -173.875 254.4375 C-175.08381244 252.81791347 -175.08381244 252.81791347 -176.8125 251.375 C-181.16677234 247.25585837 -184.84557213 242.72451651 -188.58007812 238.04443359 C-189.95833206 236.33408907 -191.36020749 234.64511034 -192.765625 232.95703125 C-214.30564582 206.88776187 -230.55333932 177.08851493 -227.875 142.4375 C-225.76233601 130.82985181 -218.9910519 120.80885297 -209.875 113.4375 C-179.79198516 93.14722982 -140.53881642 96.58005649 -106.5625 103 C-104.31620787 103.43778543 -102.07010376 103.87653706 -99.82421875 104.31640625 C-95.1820015 105.21907994 -90.57588021 105.92790397 -85.875 106.4375 C-85.65996826 105.75051025 -85.44493652 105.06352051 -85.22338867 104.35571289 C-73.68772931 67.83571021 -58.06954963 24.58714561 -22.359375 5.0234375 C-14.80604569 1.58548717 -8.32574873 -0.101984 0 0 Z M-15.875 21.4375 C-16.61105469 21.86160156 -17.34710938 22.28570313 -18.10546875 22.72265625 C-43.704549 38.54033234 -56.76352451 72.27079965 -65.875 99.4375 C-66.34268799 100.81301025 -66.34268799 100.81301025 -66.81982422 102.21630859 C-67.10486816 103.09754395 -67.38991211 103.9787793 -67.68359375 104.88671875 C-67.93810303 105.66748779 -68.1926123 106.44825684 -68.45483398 107.25268555 C-68.95483212 109.85261774 -69.11513081 111.07073663 -67.875 113.4375 C-65.01475959 114.86956402 -65.01475959 114.86956402 -61.40234375 115.8828125 C-60.73582291 116.09428421 -60.06930206 116.30575592 -59.38258362 116.52363586 C-57.94546538 116.97895871 -56.50614083 117.42736323 -55.06494141 117.86959839 C-51.27936915 119.03412552 -47.51239578 120.25527127 -43.74609375 121.48046875 C-42.99037079 121.72573807 -42.23464783 121.97100739 -41.45602417 122.22370911 C-30.19964031 125.92041221 -19.05707372 130.38416099 -8.4375 135.64501953 C-7.6640625 136.02126465 -6.890625 136.39750977 -6.09375 136.78515625 C-5.42279297 137.12683838 -4.75183594 137.46852051 -4.06054688 137.82055664 C0.69423634 139.16275248 5.07701793 137.21771916 9.4140625 135.28515625 C10.4246875 134.84300781 11.4353125 134.40085937 12.4765625 133.9453125 C13.55679688 133.46835938 14.63703125 132.99140625 15.75 132.5 C25.44341403 128.30615991 35.17371272 124.46952302 45.125 120.9375 C46.27436035 120.52894775 47.4237207 120.12039551 48.60791016 119.69946289 C54.45885316 117.64661333 60.26365935 115.77122433 66.296875 114.32617188 C68.27434681 113.59939277 68.27434681 113.59939277 68.97631836 111.65869141 C69.15976108 108.91819572 68.62145012 107.03690672 67.75390625 104.4296875 C67.43107666 103.45201416 67.10824707 102.47434082 66.77563477 101.46704102 C66.41655029 100.42604248 66.05746582 99.38504395 65.6875 98.3125 C65.13823853 96.69976196 65.13823853 96.69976196 64.57788086 95.05444336 C61.28897779 85.58062815 57.51377414 76.45019835 53.125 67.4375 C52.78388184 66.7254541 52.44276367 66.0134082 52.09130859 65.27978516 C43.06413607 46.62418921 30.22620277 26.32389038 10.21484375 18.265625 C1.16463007 15.84003044 -7.86986194 16.59823575 -15.875 21.4375 Z M-203.8125 131.25 C-204.87277052 132.61611779 -205.89620939 134.0118702 -206.875 135.4375 C-207.308125 136.0459375 -207.74125 136.654375 -208.1875 137.28125 C-213.40142006 146.4056101 -212.14136202 159.86409688 -209.48535156 169.66381836 C-201.66369434 194.79636736 -185.36818075 216.17429461 -167.8203125 235.30859375 C-165.09656984 238.28939646 -162.48600754 241.35785008 -159.875 244.4375 C-156.31416901 241.39595686 -152.76410776 238.34540555 -149.25 235.25 C-141.51953073 228.48770125 -133.73067503 221.8100499 -125.625 215.5 C-124.6261377 214.71850586 -123.62727539 213.93701172 -122.59814453 213.13183594 C-120.0370927 211.20215429 -117.43319788 209.58523707 -114.62670898 208.03662109 C-105.36143498 202.75734194 -105.36143498 202.75734194 -100.03271484 193.90307617 C-98.88214464 188.65245302 -98.53593801 183.35235934 -98.1875 178 C-97.91310553 175.12567949 -97.61164501 172.25494322 -97.30993652 169.38337708 C-97.11168136 167.47170187 -96.92257907 165.55905454 -96.74279785 163.64555359 C-95.92493576 155.07216837 -94.37096625 146.77352356 -92.5 138.375 C-92.23614502 137.17625244 -91.97229004 135.97750488 -91.70043945 134.74243164 C-91.25114057 132.70808508 -90.79568089 130.67507611 -90.33056641 128.64428711 C-89.80760811 126.48660354 -89.80760811 126.48660354 -89.875 124.4375 C-99.00372987 121.64692892 -108.13990145 119.7578404 -117.5625 118.25 C-119.11022095 118.00008301 -119.11022095 118.00008301 -120.68920898 117.74511719 C-146.27049441 113.78545537 -184.31106442 110.42362612 -203.8125 131.25 Z M90.125 124.4375 C90.25551758 125.08895996 90.38603516 125.74041992 90.52050781 126.41162109 C92.99289492 138.82335074 95.3366155 151.23868543 97.25 163.75 C97.41773926 164.82024414 97.58547852 165.89048828 97.75830078 166.99316406 C98.54806188 172.14268879 99.23016734 177.26681746 99.6875 182.45703125 C100.31315438 191.75807982 100.31315438 191.75807982 103.97265625 200.08984375 C106.56201809 202.20369674 109.22449901 203.77541516 112.125 205.4375 C114.75671039 207.29044621 117.31243025 209.24049907 119.875 211.1875 C120.55651123 211.69506836 121.23802246 212.20263672 121.94018555 212.72558594 C128.95482522 217.97026889 135.55293419 223.65469939 142.125 229.4375 C143.27935547 230.44103516 143.27935547 230.44103516 144.45703125 231.46484375 C149.38193696 235.74863747 154.2521019 240.09475517 159.125 244.4375 C160.25976731 243.30273269 161.3934148 242.16683591 162.5234375 241.02734375 C163.61745139 239.94133484 164.72776003 238.87156015 165.8515625 237.81640625 C171.78369597 232.14059953 176.74410164 225.83653174 181.69726562 219.31396484 C182.6355673 218.08075919 183.57943211 216.85176292 184.52929688 215.62744141 C194.96110349 202.17801892 203.84841639 187.70696612 209.125 171.4375 C209.35703125 170.72722656 209.5890625 170.01695312 209.828125 169.28515625 C212.69712843 159.26413711 213.36453485 148.39115124 208.8984375 138.8046875 C202.53896663 127.41205252 193.1346412 122.1247687 180.74609375 118.4296875 C154.9276448 112.15034809 114.21437748 112.39281126 90.125 124.4375 Z M-73.875 129.4375 C-76.80521186 141.34284227 -79.31542314 153.2547676 -81.1875 165.375 C-81.35862305 166.46925293 -81.52974609 167.56350586 -81.70605469 168.69091797 C-82.49758324 173.99712132 -83.08104968 179.07257687 -82.875 184.4375 C-77.39644223 181.58214997 -72.04941803 178.58887102 -66.84912109 175.24975586 C-58.35365249 169.79511316 -49.59246575 164.86312308 -40.75 160 C-40.10935608 159.64730042 -39.46871216 159.29460083 -38.80865479 158.93121338 C-32.87737149 155.66990984 -26.94553404 152.43517505 -20.875 149.4375 C-23.30196015 146.62137714 -25.66670787 145.51990327 -29.1171875 144.203125 C-30.17413818 143.79690918 -31.23108887 143.39069336 -32.32006836 142.97216797 C-33.4519458 142.54822754 -34.58382324 142.12428711 -35.75 141.6875 C-36.9057251 141.24937988 -38.0614502 140.81125977 -39.25219727 140.35986328 C-46.72924699 137.550131 -54.24119983 134.85731677 -61.8125 132.3125 C-62.68696777 132.01762695 -63.56143555 131.72275391 -64.46240234 131.41894531 C-65.26758301 131.15436523 -66.07276367 130.88978516 -66.90234375 130.6171875 C-67.60093506 130.38757324 -68.29952637 130.15795898 -69.01928711 129.92138672 C-71.03919491 129.31134088 -71.03919491 129.31134088 -73.875 129.4375 Z M58.8125 133.375 C57.61383301 133.775979 56.41516602 134.17695801 55.18017578 134.59008789 C47.19588713 137.30132465 39.31221807 140.20179787 31.5 143.375 C30.56502686 143.75197021 29.63005371 144.12894043 28.66674805 144.51733398 C27.81508057 144.87126221 26.96341309 145.22519043 26.0859375 145.58984375 C25.34134277 145.89913818 24.59674805 146.20843262 23.82958984 146.52709961 C21.94030759 147.3249947 21.94030759 147.3249947 21.125 149.4375 C21.68034424 149.71722656 22.23568848 149.99695313 22.80786133 150.28515625 C34.88975538 156.40294447 46.73945452 162.82604611 58.375 169.75 C60.03172729 170.73516602 60.03172729 170.73516602 61.72192383 171.74023438 C67.90886445 175.44632166 74.01938488 179.25058597 80.06933594 183.17651367 C81.86513321 184.52464708 81.86513321 184.52464708 83.125 184.4375 C82.61032885 174.74050096 81.45881144 165.37370686 79.75 155.8125 C79.54117188 154.59304687 79.33234375 153.37359375 79.1171875 152.1171875 C77.77598539 144.46252183 76.12312549 136.94733787 74.125 129.4375 C68.79506469 129.4375 63.8296779 131.69378117 58.8125 133.375 Z M-7.87890625 161.15625 C-8.46580231 161.44557907 -9.05269836 161.73490814 -9.65737915 162.03300476 C-11.58933299 162.99104608 -13.51383905 163.96292368 -15.4375 164.9375 C-16.10061188 165.27085358 -16.76372375 165.60420715 -17.44692993 165.94766235 C-31.66860547 173.11337181 -45.3230293 181.07448458 -58.875 189.4375 C-59.82632813 190.02257324 -60.77765625 190.60764648 -61.7578125 191.21044922 C-64.36497407 192.81903448 -66.96598231 194.43679789 -69.5625 196.0625 C-70.29815186 196.52293701 -71.03380371 196.98337402 -71.79174805 197.45776367 C-73.16344526 198.32944121 -74.52437863 199.21835012 -75.87255859 200.12597656 C-77.875 201.4375 -77.875 201.4375 -80.13134766 202.64746094 C-82.52143042 204.07398027 -84.08801516 205.29619822 -85.875 207.4375 C-86.52130627 210.09823202 -86.52130627 210.09823202 -86.58813477 213.11962891 C-86.64750717 214.2817691 -86.70687958 215.4439093 -86.76805115 216.64126587 C-86.95929992 223.42979231 -87.01831783 230.20948616 -87.0078125 237 C-87.00848854 238.56453466 -87.00946105 240.12906921 -87.01071167 241.69360352 C-87.01217453 244.95101942 -87.01008001 248.20840766 -87.00537109 251.46582031 C-86.99967469 255.60405176 -87.00296133 259.74221831 -87.00894356 263.88044739 C-87.01258761 267.10470045 -87.01139309 270.32893858 -87.00881577 273.55319214 C-87.00815708 275.07754525 -87.00893706 276.60189979 -87.01129532 278.12625122 C-87.01999564 285.32716573 -86.96171703 292.52834664 -86.63232422 299.72265625 C-86.59001678 300.73336182 -86.54770935 301.74406738 -86.50411987 302.78540039 C-85.69852148 306.18145776 -84.34849913 307.32391243 -81.625 309.4375 C-80.04218278 310.41091214 -78.45582544 311.37980691 -76.84082031 312.29882812 C-74.58972474 313.60274141 -72.40331366 314.99025908 -70.2109375 316.390625 C-51.47128638 328.29971812 -32.13033243 339.1331015 -12.32958984 349.171875 C-10.75153813 349.9855432 -9.18751091 350.82734286 -7.64306641 351.703125 C-6.622854 352.26773438 -6.622854 352.26773438 -5.58203125 352.84375 C-5.00557861 353.17697266 -4.42912598 353.51019531 -3.83520508 353.85351562 C0.9025435 355.26498587 5.34564888 353.08230981 9.5546875 350.98828125 C10.58505127 350.47716797 11.61541504 349.96605469 12.67700195 349.43945312 C14.32188599 348.60317383 14.32188599 348.60317383 16 347.75 C17.72126099 346.88084961 17.72126099 346.88084961 19.47729492 345.99414062 C31.30693622 339.94822225 42.7623763 333.31589043 54.125 326.4375 C55.0840625 325.8590332 56.043125 325.28056641 57.03125 324.68457031 C62.37216394 321.45353508 67.67187807 318.16722324 72.93408203 314.80957031 C74.87901927 313.59154632 76.84579941 312.43956338 78.83984375 311.3046875 C81.75493088 309.51136491 83.86273745 307.99397124 86.125 305.4375 C86.85304271 302.74217646 86.85304271 302.74217646 86.88232422 299.72265625 C86.93531677 298.56523926 86.98830933 297.40782227 87.04290771 296.21533203 C87.19029105 289.4328495 87.26830737 282.65875699 87.2578125 275.875 C87.25848854 274.31046534 87.25946105 272.74593079 87.26071167 271.18139648 C87.26217453 267.92398058 87.26008001 264.66659234 87.25537109 261.40917969 C87.24967469 257.27094824 87.25296133 253.13278169 87.25894356 248.99455261 C87.26258761 245.77029955 87.26139309 242.54606142 87.25881577 239.32180786 C87.25815708 237.79745475 87.25893706 236.27310021 87.26129532 234.74874878 C87.26999564 227.54783427 87.21171703 220.34665336 86.88232422 213.15234375 C86.84001678 212.14163818 86.79770935 211.13093262 86.75411987 210.08959961 C85.94842323 206.69312806 84.59903889 205.55124832 81.875 203.4375 C80.28483886 202.45972441 78.69124652 201.48628644 77.06884766 200.56298828 C74.88377143 199.2978286 72.76304806 197.95138976 70.63671875 196.58984375 C32.92681964 168.88556395 32.92681964 168.88556395 -7.87890625 161.15625 Z M-111.125 225.25 C-111.75180664 225.74483887 -112.37861328 226.23967773 -113.02441406 226.74951172 C-122.17292009 234.0117989 -131.04310593 241.57437787 -139.65625 249.46484375 C-141.99692648 251.54590295 -144.41410777 253.50084713 -146.875 255.4375 C-145.77803373 258.7283988 -145.02698144 259.40546717 -142.4375 261.5625 C-139.30990898 264.20849736 -136.26146468 266.90998382 -133.25 269.6875 C-127.56843436 274.81754232 -121.56509161 279.49616759 -115.50976562 284.17138672 C-114.00534776 285.33654667 -112.51003388 286.51343641 -111.015625 287.69140625 C-110.20609375 288.32949219 -109.3965625 288.96757812 -108.5625 289.625 C-107.86511719 290.17542969 -107.16773438 290.72585938 -106.44921875 291.29296875 C-105.06458093 292.53550873 -105.06458093 292.53550873 -103.875 292.4375 C-103.875 268.6775 -103.875 244.9175 -103.875 220.4375 C-106.3203302 220.4375 -109.19564418 223.72255075 -111.125 225.25 Z M104.125 220.4375 C104.125 244.1975 104.125 267.9575 104.125 292.4375 C109.8288421 288.6349386 114.9457202 285.1055868 120 280.625 C121.20864322 279.56917562 122.41829003 278.51449905 123.62890625 277.4609375 C124.21816895 276.94756836 124.80743164 276.43419922 125.41455078 275.90527344 C127.8748436 273.794043 130.40544774 271.7742213 132.9375 269.75 C138.01388309 265.63767779 142.60986481 261.15330787 147.125 256.4375 C145.97135343 255.28385343 144.81702078 254.13088835 143.66015625 252.98046875 C142.63663964 251.9517434 141.62351715 250.9125712 140.62109375 249.86328125 C135.99639737 245.08257102 130.97428902 240.91074312 125.78027344 236.76318359 C123.93292622 235.283671 122.09528308 233.79253983 120.2578125 232.30078125 C118.92212419 231.22104583 117.58618866 230.14161616 116.25 229.0625 C115.61964844 228.55050049 114.98929687 228.03850098 114.33984375 227.51098633 C113.73527344 227.02525146 113.13070313 226.5395166 112.5078125 226.0390625 C111.70947998 225.39445068 111.70947998 225.39445068 110.89501953 224.73681641 C108.74003859 223.15491178 106.41730893 221.81288536 104.125 220.4375 Z M-159.875 268.4375 C-168.58779471 277.20358398 -176.46376682 286.55956788 -183.875 296.4375 C-184.2987793 296.99373047 -184.72255859 297.54996094 -185.15917969 298.12304688 C-200.58002145 318.43920581 -213.8566537 342.1462331 -210.875 368.4375 C-208.11439243 378.01303919 -202.48914287 384.29536699 -193.9296875 389.0859375 C-163.28800512 404.22219024 -123.62600217 397.6979858 -91.875 389.4375 C-91.215 389.1075 -90.555 388.7775 -89.875 388.4375 C-90.00551758 387.78604004 -90.13603516 387.13458008 -90.27050781 386.46337891 C-92.73881821 374.07211488 -95.07715394 361.67610725 -97 349.1875 C-97.17281494 348.11693359 -97.34562988 347.04636719 -97.52368164 345.94335938 C-98.34031403 340.72767913 -98.96692931 335.61242593 -99.19140625 330.3359375 C-99.55223207 319.53076002 -99.55223207 319.53076002 -105.28125 310.86328125 C-108.84928895 308.18883417 -112.66889868 306.00485362 -116.55419922 303.828125 C-120.37310396 301.53983535 -123.72051778 298.73023796 -127.125 295.875 C-127.78419434 295.33117676 -128.44338867 294.78735352 -129.12255859 294.22705078 C-131.04612245 292.63768764 -132.9613657 291.03879629 -134.875 289.4375 C-135.46297363 288.94862305 -136.05094727 288.45974609 -136.65673828 287.95605469 C-143.54775093 282.22363872 -150.26142961 276.33999387 -156.828125 270.23828125 C-158.54575595 268.3274115 -158.54575595 268.3274115 -159.875 268.4375 Z M152.75 274.375 C146.74412847 280.00783603 140.56996178 285.3094384 134.125 290.4375 C132.98467685 291.36856797 131.84541261 292.30093387 130.70703125 293.234375 C130.13376099 293.70061279 129.56049072 294.16685059 128.96984863 294.6472168 C127.71728872 295.66637225 126.46805962 296.68964552 125.22335815 297.71838379 C121.86635778 300.43774567 118.54654089 302.84765899 114.7668457 304.94824219 C105.56568435 310.17401506 105.56568435 310.17401506 100.28710938 318.9675293 C99.13296776 324.21985226 98.7860891 329.52031969 98.4375 334.875 C98.16310553 337.74932051 97.86164501 340.62005678 97.55993652 343.49162292 C97.36168136 345.40329813 97.17257907 347.31594546 96.99279785 349.22944641 C96.17493576 357.80283163 94.62096625 366.10147644 92.75 374.5 C92.48614502 375.69874756 92.22229004 376.89749512 91.95043945 378.13256836 C91.50114057 380.16691492 91.04568089 382.19992389 90.58056641 384.23071289 C90.05760811 386.38839646 90.05760811 386.38839646 90.125 388.4375 C99.46694002 391.02027165 108.81684349 393.02202372 118.375 394.625 C119.84549805 394.87491699 119.84549805 394.87491699 121.34570312 395.12988281 C146.87907185 399.28866227 177.87161289 400.81904117 200.125 385.4375 C206.97270118 379.52067812 210.79897967 372.38094335 211.5390625 363.359375 C213.08243016 331.34412033 190.46637113 302.44121854 170.1875 279.875 C169.48753906 279.11316406 168.78757812 278.35132813 168.06640625 277.56640625 C166.20107283 275.52091991 164.40655665 273.43099407 162.625 271.3125 C161.8 270.36375 160.975 269.415 160.125 268.4375 C157.66212938 268.4375 154.57630018 272.64267425 152.75 274.375 Z M-82.875 328.4375 C-82.40793755 338.34455613 -81.12485228 347.89377348 -79.34594727 357.63549805 C-78.93375376 359.89554051 -78.53347811 362.15746601 -78.13476562 364.41992188 C-76.98260371 370.86140032 -75.75792107 377.16801582 -73.875 383.4375 C-65.88511436 382.23397806 -58.49874866 379.69075995 -50.96240234 376.86157227 C-49.0128586 376.12982637 -47.0596522 375.40870461 -45.10546875 374.68945312 C-31.23644827 370.97167771 -31.23644827 370.97167771 -20.875 363.4375 C-21.43034424 363.15777344 -21.98568848 362.87804687 -22.55786133 362.58984375 C-34.63975538 356.47205553 -46.48945452 350.04895389 -58.125 343.125 C-59.22948486 342.46822266 -60.33396973 341.81144531 -61.47192383 341.13476562 C-67.65886445 337.42867834 -73.76938488 333.62441403 -79.81933594 329.69848633 C-81.61513321 328.35035292 -81.61513321 328.35035292 -82.875 328.4375 Z M78.171875 330.859375 C77.33575684 331.38426514 76.49963867 331.90915527 75.63818359 332.44995117 C74.27040771 333.31003784 74.27040771 333.31003784 72.875 334.1875 C56.0240946 344.69227887 38.76423673 354.32557429 21.125 363.4375 C23.55196015 366.25362286 25.91670787 367.35509673 29.3671875 368.671875 C30.42413818 369.07809082 31.48108887 369.48430664 32.57006836 369.90283203 C33.7019458 370.32677246 34.83382324 370.75071289 36 371.1875 C37.1557251 371.62562012 38.3114502 372.06374023 39.50219727 372.51513672 C46.97924699 375.324869 54.49119983 378.01768323 62.0625 380.5625 C62.93696777 380.85737305 63.81143555 381.15224609 64.71240234 381.45605469 C65.51758301 381.72063477 66.32276367 381.98521484 67.15234375 382.2578125 C68.20023071 382.60223389 68.20023071 382.60223389 69.26928711 382.95361328 C71.28919491 383.56365912 71.28919491 383.56365912 74.125 383.4375 C77.03167285 372.50905963 79.06312432 361.46657945 80.875 350.3125 C80.98750092 349.63105927 81.10000183 348.94961853 81.21591187 348.24752808 C81.54116562 346.26765407 81.85665111 344.28618314 82.171875 342.3046875 C82.44789551 340.57387939 82.44789551 340.57387939 82.72949219 338.80810547 C83.13875831 335.32024861 83.19306086 331.94598166 83.125 328.4375 C81.25854177 328.4375 79.70170336 329.89250218 78.171875 330.859375 Z M-6.34765625 376.2734375 C-7.23380615 376.67344971 -8.11995605 377.07346191 -9.03295898 377.4855957 C-9.99145752 377.92347412 -10.94995605 378.36135254 -11.9375 378.8125 C-20.79243123 382.75868074 -29.71872492 386.39002021 -38.8125 389.75 C-39.94937256 390.17023438 -41.08624512 390.59046875 -42.25756836 391.0234375 C-49.83184542 393.78313045 -57.43705685 396.23075203 -65.2265625 398.3046875 C-67.98061674 399.1211697 -67.98061674 399.1211697 -68.62402344 401.19970703 C-68.93410577 403.96450732 -68.41110993 405.73453767 -67.5390625 408.375 C-67.22130859 409.34252197 -66.90355469 410.31004395 -66.57617188 411.30688477 C-66.0434668 412.85653931 -66.0434668 412.85653931 -65.5 414.4375 C-65.13712891 415.50605225 -64.77425781 416.57460449 -64.40039062 417.67553711 C-60.84800121 427.90231972 -56.61663006 437.71212322 -51.875 447.4375 C-51.38845947 448.45529541 -51.38845947 448.45529541 -50.89208984 449.49365234 C-42.20442556 467.51234496 -29.15548371 486.89038859 -9.9609375 494.609375 C-1.81717391 496.79479004 7.08567134 496.39543105 14.75390625 492.83203125 C19.28250764 490.16858694 23.20815614 486.92135942 27.125 483.4375 C28.01445312 482.68919922 28.01445312 482.68919922 28.921875 481.92578125 C47.74466566 464.85082115 58.26962562 436.85901961 66.125 413.4375 C66.43679199 412.52049316 66.74858398 411.60348633 67.06982422 410.65869141 C67.35486816 409.77745605 67.63991211 408.8962207 67.93359375 407.98828125 C68.18810303 407.20751221 68.4426123 406.42674316 68.70483398 405.62231445 C69.20483212 403.02238226 69.36513081 401.80426337 68.125 399.4375 C65.26475959 398.00543598 65.26475959 398.00543598 61.65234375 396.9921875 C60.98582291 396.78071579 60.31930206 396.56924408 59.63258362 396.35136414 C58.19546538 395.89604129 56.75614083 395.44763677 55.31494141 395.00540161 C51.52936915 393.84087448 47.76239578 392.61972873 43.99609375 391.39453125 C43.24037079 391.14926193 42.48464783 390.90399261 41.70602417 390.65129089 C30.39937026 386.93807863 19.39544513 382.30380427 8.6171875 377.26513672 C7.82570313 376.89791504 7.03421875 376.53069336 6.21875 376.15234375 C5.52458984 375.82226318 4.83042969 375.49218262 4.11523438 375.15209961 C0.12467968 373.719279 -2.69895713 374.5915348 -6.34765625 376.2734375 Z " fill="#106EFF" transform="translate(255.875,-0.4375)"/>
<path d="M0 0 C2.44225447 1.66159248 4.74768159 3.38773224 7.0390625 5.25 C7.87179687 5.87648437 8.70453125 6.50296875 9.5625 7.1484375 C18.76036546 14.95356624 26.15845232 28.59050337 27.26025391 40.67626953 C27.73579386 51.65011278 27.93683722 62.18235196 23.0390625 72.25 C22.58015625 73.21164062 22.12125 74.17328125 21.6484375 75.1640625 C13.91897924 90.25684678 1.74462952 98.78970206 -14.12109375 104.359375 C-26.20509403 107.16217466 -40.75813646 106.70001132 -51.9609375 101.25 C-52.92257813 100.79109375 -53.88421875 100.3321875 -54.875 99.859375 C-69.96778428 92.12991674 -78.50063956 79.95556702 -84.0703125 64.08984375 C-86.87311216 52.00584347 -86.41094882 37.45280104 -80.9609375 26.25 C-80.50203125 25.28835937 -80.043125 24.32671875 -79.5703125 23.3359375 C-71.84651061 8.25419803 -59.66331626 -0.32293942 -43.7890625 -5.85546875 C-29.15360965 -9.27538579 -12.98077044 -7.67201208 0 0 Z " fill="#93C0FF" transform="translate(284.9609375,206.75)"/>
<path d="M0 0 C2.44225447 1.66159248 4.74768159 3.38773224 7.0390625 5.25 C7.87179687 5.87648437 8.70453125 6.50296875 9.5625 7.1484375 C18.76036546 14.95356624 26.15845232 28.59050337 27.26025391 40.67626953 C27.73579386 51.65011278 27.93683722 62.18235196 23.0390625 72.25 C22.58015625 73.21164062 22.12125 74.17328125 21.6484375 75.1640625 C13.91897924 90.25684678 1.74462952 98.78970206 -14.12109375 104.359375 C-26.20509403 107.16217466 -40.75813646 106.70001132 -51.9609375 101.25 C-52.92257813 100.79109375 -53.88421875 100.3321875 -54.875 99.859375 C-69.96778428 92.12991674 -78.50063956 79.95556702 -84.0703125 64.08984375 C-86.87311216 52.00584347 -86.41094882 37.45280104 -80.9609375 26.25 C-80.50203125 25.28835937 -80.043125 24.32671875 -79.5703125 23.3359375 C-71.84651061 8.25419803 -59.66331626 -0.32293942 -43.7890625 -5.85546875 C-29.15360965 -9.27538579 -12.98077044 -7.67201208 0 0 Z M-60.2109375 23.625 C-67.56732819 32.68055702 -69.98536725 42.73797072 -68.9609375 54.25 C-66.49909802 66.48925878 -61.08875268 75.88431623 -50.9609375 83.25 C-42.42739107 88.75551382 -31.96655587 90.36950975 -21.9609375 89.25 C-11.07768278 86.60068765 -1.24597204 80.64628298 5.0390625 71.25 C11.02233394 59.32995923 12.61160375 49.14104149 9.0703125 36.23828125 C5.51145507 25.92568302 -1.42046574 17.96997736 -11.0859375 12.875 C-28.70947505 4.49402881 -47.41927218 9.62417228 -60.2109375 23.625 Z " fill="#116FFF" transform="translate(284.9609375,206.75)"/>
</svg>
