<svg width="60" height="60" viewBox="0 0 60 60" fill="none" xmlns="http://www.w3.org/2000/svg">
<g clip-path="url(#clip0_87_1579)">
<path d="M27.4258 5H22.4258C9.92578 5 4.92578 10 4.92578 22.5V37.5C4.92578 50 9.92578 55 22.4258 55H37.4258C49.9258 55 54.9258 50 54.9258 37.5V32.5" stroke="#17B8A6" stroke-width="1.5" stroke-linecap="round" stroke-linejoin="round"/>
<path d="M54.6996 8.89994C51.6246 16.5749 43.8996 27.0249 37.4496 32.1999L33.4996 35.3499C32.9996 35.7249 32.4996 36.0249 31.9246 36.2499C31.9246 35.8749 31.8996 35.4999 31.8496 35.0999C31.6246 33.4249 30.8746 31.8499 29.5246 30.5249C28.1496 29.1499 26.4996 28.3749 24.7996 28.1499C24.3996 28.1249 23.9996 28.0999 23.5996 28.1249C23.8246 27.4999 24.1496 26.9249 24.5746 26.4499L27.7246 22.4999C32.8996 16.0499 43.3746 8.27494 51.0246 5.19994C52.1996 4.74994 53.3496 5.09994 54.0746 5.82494C54.8246 6.57494 55.1746 7.72494 54.6996 8.89994Z" stroke="#17B8A6" stroke-width="1.5" stroke-linecap="round" stroke-linejoin="round"/>
<path d="M31.9502 36.225C31.9502 38.425 31.1002 40.525 29.5252 42.125C28.3002 43.35 26.6502 44.2 24.6752 44.45L19.7502 44.975C17.0752 45.275 14.7752 43 15.0752 40.275L15.6002 35.35C16.0752 30.975 19.7252 28.175 23.6252 28.1C24.0252 28.075 24.4252 28.1 24.8252 28.125C26.5252 28.35 28.1752 29.125 29.5502 30.5C30.9002 31.85 31.6502 33.4 31.8752 35.075C31.9252 35.475 31.9502 35.875 31.9502 36.225Z" stroke="#17B8A6" stroke-width="1.5" stroke-linecap="round" stroke-linejoin="round"/>
<path d="M39.5492 29.95C39.5492 24.725 35.3242 20.475 30.0742 20.475" stroke="#17B8A6" stroke-width="1.5" stroke-linecap="round" stroke-linejoin="round"/>
</g>
<defs>
<clipPath id="clip0_87_1579">
<rect width="60" height="60" fill="white"/>
</clipPath>
</defs>
</svg>
