<svg width="60" height="60" viewBox="0 0 60 60" fill="none" xmlns="http://www.w3.org/2000/svg">
<path d="M22.4988 32.5C20.8488 33.325 19.4738 34.55 18.4488 36.075C17.8738 36.95 17.8738 38.05 18.4488 38.925C19.4738 40.45 20.8488 41.675 22.4988 42.5" stroke="#17B8A6" stroke-width="1.5" stroke-linecap="round" stroke-linejoin="round"/>
<path d="M38.0254 32.5C39.6754 33.325 41.0504 34.55 42.0754 36.075C42.6504 36.95 42.6504 38.05 42.0754 38.925C41.0504 40.45 39.6754 41.675 38.0254 42.5" stroke="#17B8A6" stroke-width="1.5" stroke-linecap="round" stroke-linejoin="round"/>
<path d="M22.5 55H37.5C50 55 55 50 55 37.5V22.5C55 10 50 5 37.5 5H22.5C10 5 5 10 5 22.5V37.5C5 50 10 55 22.5 55Z" stroke="#17B8A6" stroke-width="1.5" stroke-linecap="round" stroke-linejoin="round"/>
<path d="M5.57617 20.025L53.6262 20" stroke="#17B8A6" stroke-width="1.5" stroke-linecap="round" stroke-linejoin="round"/>
</svg>
