<?xml version="1.0" encoding="UTF-8"?>
<svg version="1.1" xmlns="http://www.w3.org/2000/svg" width="256" height="256">
<path d="M0 0 C1.51701689 -0.00599214 3.03403074 -0.01279926 4.55104065 -0.02035522 C8.65463116 -0.03795527 12.75813815 -0.04270814 16.86176276 -0.0439868 C19.43151504 -0.04541266 22.00124637 -0.04969054 24.57099342 -0.05498123 C33.55320193 -0.07346355 42.53535124 -0.08165433 51.51757812 -0.08007812 C59.86206157 -0.07887807 68.2062858 -0.09995828 76.5507037 -0.13156545 C83.73743287 -0.15780769 90.9240778 -0.16844206 98.11085445 -0.16716731 C102.39307936 -0.16665989 106.67507384 -0.1722198 110.9572506 -0.19352341 C114.99001222 -0.21303974 119.02232683 -0.21293998 123.05510521 -0.19849014 C124.52514813 -0.19641724 125.99522002 -0.20101106 127.46521378 -0.21321106 C145.18311768 -0.35059259 159.87940168 4.7926034 172.77075195 17.09521484 C173.49907227 17.81966797 174.22739258 18.54412109 174.9777832 19.29052734 C175.80729492 20.06783203 175.80729492 20.06783203 176.65356445 20.86083984 C180.4409966 24.76056782 182.78177998 29.42561608 185.2277832 34.22802734 C185.5695459 34.89648682 185.91130859 35.56494629 186.26342773 36.25366211 C186.58682129 36.91422607 186.91021484 37.57479004 187.2434082 38.25537109 C187.52990234 38.83923584 187.81639648 39.42310059 188.11157227 40.0246582 C191.31673299 48.40884555 191.27532676 56.43130444 191.26831055 65.31274414 C191.27430269 66.82976103 191.28110981 68.34677488 191.28866577 69.86378479 C191.30626582 73.9673753 191.31101868 78.07088229 191.31229734 82.1745069 C191.31372321 84.74425918 191.31800108 87.31399051 191.32329178 89.88373756 C191.34177409 98.86594607 191.34996488 107.84809538 191.34838867 116.83032227 C191.34718862 125.17480571 191.36826883 133.51902994 191.399876 141.86344784 C191.42611824 149.05017701 191.43675261 156.23682194 191.43547785 163.42359859 C191.43497044 167.7058235 191.44053034 171.98781798 191.46183395 176.26999474 C191.48135029 180.30275636 191.48125053 184.33507097 191.46680069 188.36784935 C191.46472778 189.83789227 191.4693216 191.30796416 191.48152161 192.77795792 C191.61846228 210.43900492 186.51144761 225.1561158 174.2434082 238.01318359 C173.12192383 239.14046875 173.12192383 239.14046875 171.9777832 240.29052734 C171.37450195 240.92861328 170.7712207 241.56669922 170.1496582 242.22412109 C158.10360876 253.98211284 142.06184678 256.59377843 125.95556641 256.58105469 C124.43854952 256.58704683 122.92153566 256.59385395 121.40452576 256.60140991 C117.30093525 256.61900996 113.19742826 256.62376282 109.09380364 256.62504148 C106.52405137 256.62646735 103.95432004 256.63074522 101.38457298 256.63603592 C92.40236448 256.65451823 83.42021517 256.66270902 74.43798828 256.66113281 C66.09350484 256.65993276 57.74928061 256.68101297 49.4048627 256.71262014 C42.21813354 256.73886238 35.03148861 256.74949675 27.84471196 256.74822199 C23.56248705 256.74771458 19.28049257 256.75327448 14.99831581 256.77457809 C10.96555418 256.79409443 6.93323958 256.79399467 2.9004612 256.77954483 C1.43041828 256.77747192 -0.03965362 256.78206574 -1.50964737 256.79426575 C-19.22755128 256.93164728 -33.92383528 251.78845128 -46.81518555 239.48583984 C-47.54350586 238.76138672 -48.27182617 238.03693359 -49.0222168 237.29052734 C-49.57522461 236.77232422 -50.12823242 236.25412109 -50.69799805 235.72021484 C-54.48543019 231.82048687 -56.82621358 227.15543861 -59.2722168 222.35302734 C-59.78486084 221.35033813 -59.78486084 221.35033813 -60.30786133 220.32739258 C-60.63125488 219.66682861 -60.95464844 219.00626465 -61.2878418 218.32568359 C-61.71758301 217.44988647 -61.71758301 217.44988647 -62.15600586 216.55639648 C-65.36116659 208.17220913 -65.31976036 200.14975025 -65.31274414 191.26831055 C-65.31873628 189.75129366 -65.3255434 188.2342798 -65.33309937 186.7172699 C-65.35069941 182.61367939 -65.35545228 178.5101724 -65.35673094 174.40654778 C-65.3581568 171.83679551 -65.36243468 169.26706418 -65.36772537 166.69731712 C-65.38620769 157.71510862 -65.39439847 148.73295931 -65.39282227 139.75073242 C-65.39162221 131.40624898 -65.41270243 123.06202475 -65.44430959 114.71760684 C-65.47055184 107.53087768 -65.4811862 100.34423275 -65.47991145 93.1574561 C-65.47940403 88.87523119 -65.48496394 84.59323671 -65.50626755 80.31105995 C-65.52578388 76.27829832 -65.52568412 72.24598372 -65.51123428 68.21320534 C-65.50916138 66.74316242 -65.5137552 65.27309052 -65.5259552 63.80309677 C-65.66333673 46.08519286 -60.52014074 31.38890886 -48.2175293 18.49755859 C-47.13084961 17.40507813 -47.13084961 17.40507813 -46.0222168 16.29052734 C-45.50401367 15.73751953 -44.98581055 15.18451172 -44.4519043 14.61474609 C-40.55217632 10.82731395 -35.88712806 8.48653056 -31.0847168 6.04052734 C-30.41625732 5.69876465 -29.74779785 5.35700195 -29.05908203 5.00488281 C-28.39851807 4.68148926 -27.7379541 4.3580957 -27.05737305 4.02490234 C-26.4735083 3.7384082 -25.88964355 3.45191406 -25.28808594 3.15673828 C-16.90389859 -0.04842245 -8.8814397 -0.00701622 0 0 Z " fill="#18B8A6" transform="translate(65.022216796875,-0.29052734375)"/>
<path d="M0 0 C5.4975796 5.45646988 5.4975796 5.45646988 7.76953125 8.46875 C8.25728027 9.11110596 8.7450293 9.75346191 9.24755859 10.4152832 C9.76398926 11.10323975 10.28041992 11.79119629 10.8125 12.5 C11.96739079 14.02478285 13.12234144 15.54952037 14.27734375 17.07421875 C14.88304199 17.87649902 15.48874023 18.6787793 16.11279297 19.50537109 C18.02761608 22.03650467 19.95167938 24.5603316 21.87890625 27.08203125 C29.12724529 36.56734693 36.32260857 46.08953401 43.46704102 55.65332031 C48.43354288 62.2841392 53.49734697 68.83547724 58.60986328 75.35424805 C59.15755371 76.05332275 59.70524414 76.75239746 60.26953125 77.47265625 C60.75010986 78.08375244 61.23068848 78.69484863 61.72583008 79.32446289 C64.66226383 83.18588171 65.25693115 85.20102788 65.29052734 90.00927734 C65.30328705 91.24841888 65.31604675 92.48756042 65.32919312 93.76425171 C65.33225347 95.12147872 65.33447978 96.47870782 65.3359375 97.8359375 C65.34237049 99.23540379 65.34909922 100.63486876 65.35610962 102.03433228 C65.36809551 104.97490545 65.37178984 107.91536115 65.37060547 110.85595703 C65.37040386 114.58896948 65.39753349 118.32120698 65.43214989 122.05403709 C65.45462478 124.95064605 65.45843657 127.84707584 65.45738602 130.74376297 C65.45971782 132.11742409 65.46840166 133.49109203 65.48405075 134.86466599 C65.66439283 152.35246101 60.39167875 167.01439131 48.265625 179.72265625 C47.14414062 180.84994141 47.14414062 180.84994141 46 182 C45.39671875 182.63808594 44.7934375 183.27617187 44.171875 183.93359375 C34.58065209 193.29546133 20.26129435 198.1648746 7.07788086 198.44921875 C6.33027496 198.4719989 5.58266907 198.49477905 4.81240845 198.51824951 C-2.96705512 198.73881045 -10.75005704 198.83424705 -18.53198242 198.91992188 C-22.20837145 198.96440349 -25.88067535 199.04783453 -29.55541992 199.16601562 C-63.40515572 200.22942894 -63.40515572 200.22942894 -71.81565857 193.14294434 C-74.05897324 190.79251878 -75.98377964 188.36405511 -77.78852844 185.66468811 C-79.65581927 183.09883602 -82.0418126 181.3305492 -84.5625 179.4375 C-88.90162123 175.97522942 -92.96210308 172.30248916 -97 168.5 C-102.79638924 163.04448201 -108.78761046 157.97993162 -115 153 C-117.37373558 151.03710327 -119.69724637 149.04689212 -122 147 C-122 146.67 -122 146.34 -122 146 C-121.41508789 145.97494385 -120.83017578 145.9498877 -120.22753906 145.92407227 C-117.56815529 145.80777038 -114.90909597 145.68519933 -112.25 145.5625 C-111.32960938 145.52318359 -110.40921875 145.48386719 -109.4609375 145.44335938 C-108.12675781 145.38051758 -108.12675781 145.38051758 -106.765625 145.31640625 C-105.94868164 145.27974854 -105.13173828 145.24309082 -104.29003906 145.20532227 C-101.68732389 145.03157467 -101.68732389 145.03157467 -98 144 C-98 106.71 -98 69.42 -98 31 C-94.73984817 34.26015183 -93.41286607 37.3418494 -91.6875 41.5 C-84.12394251 59.0803574 -74.784047 75.87680167 -65.55322266 92.625 C-60.83725405 101.21261404 -56.34792792 109.91478231 -51.89453125 118.640625 C-45.26821468 133.24411336 -45.26821468 133.24411336 -34 144 C-28.63773837 145.08972851 -23.32398891 145.18298177 -17.875 145.1875 C-17.08996094 145.19974609 -16.30492187 145.21199219 -15.49609375 145.22460938 C-9.46935388 145.27586241 -9.46935388 145.27586241 -4 143 C0.15484355 137.16295573 -0.55981071 130.60246058 -0.56762695 123.74267578 C-0.55860294 122.39204515 -0.54827415 121.04142271 -0.53674316 119.69081116 C-0.50922179 116.03630253 -0.49989533 112.38194952 -0.49388909 108.72735071 C-0.4844927 104.90361042 -0.45828831 101.07998578 -0.43388367 97.25631714 C-0.39024971 90.02105783 -0.36168373 82.785821 -0.33856028 75.55047023 C-0.31149193 67.31100162 -0.26758145 59.07164953 -0.22227156 50.83226418 C-0.12946977 33.88823615 -0.05776864 16.94418294 0 0 Z " fill="#1B9285" transform="translate(191,58)"/>
<path d="M0 0 C1.06476563 -0.01224609 2.12953125 -0.02449219 3.2265625 -0.03710938 C18.6068789 -0.06545148 18.6068789 -0.06545148 23.52905273 3.76757812 C29.98995463 10.41713678 33.8950567 18.82682192 38.0625 27 C38.85057257 28.52188299 39.64006454 30.04303173 40.4309082 31.56347656 C41.63450918 33.87824548 42.83702657 36.1935143 44.03453064 38.51144409 C47.66420212 45.53562721 51.42032347 52.48626391 55.1875 59.4375 C60.58689981 69.45880939 65.78489729 79.56887498 70.875 89.75 C71.20454681 90.40818726 71.53409363 91.06637451 71.87362671 91.74450684 C72.80142651 93.60039867 73.72579192 95.45794746 74.6484375 97.31640625 C75.44000244 98.91077515 75.44000244 98.91077515 76.24755859 100.53735352 C77.5 103.1875 77.5 103.1875 78.5 106.1875 C78.83 71.8675 79.16 37.5475 79.5 2.1875 C85.13478261 -0.06641304 85.13478261 -0.06641304 88.53125 -0.078125 C89.25957031 -0.08070312 89.98789063 -0.08328125 90.73828125 -0.0859375 C91.85783203 -0.07433594 91.85783203 -0.07433594 93 -0.0625 C93.74636719 -0.07023437 94.49273437 -0.07796875 95.26171875 -0.0859375 C96.35419922 -0.08207031 96.35419922 -0.08207031 97.46875 -0.078125 C98.12294922 -0.07586914 98.77714844 -0.07361328 99.45117188 -0.07128906 C102.01349039 0.25235937 104.12282179 1.20150505 106.5 2.1875 C106.5700516 20.89365988 106.62296928 39.59979317 106.65543652 58.30605698 C106.67091167 66.99151746 106.69201354 75.67689648 106.72631836 84.36230469 C106.75620091 91.9316705 106.77557029 99.50097732 106.78226548 107.07040048 C106.7861797 111.07913021 106.795392 115.08769118 106.81719017 119.09636688 C106.83753732 122.86872799 106.84383744 126.64085065 106.83932304 130.41326141 C106.84014904 131.79839371 106.84612541 133.1835339 106.85761642 134.56861877 C106.87253086 136.45891566 106.86716856 138.34934019 106.86076355 140.23968506 C106.86352893 141.2979034 106.86629431 142.35612175 106.86914349 143.44640732 C106.44745667 146.57766299 105.65002628 147.91181588 103.5 150.1875 C99.12789683 152.70863978 94.65536213 152.49772264 89.75 152.4375 C88.94522217 152.42855713 88.14044434 152.41961426 87.3112793 152.41040039 C78.50360237 152.23812091 72.6253437 151.96714506 66.30883789 145.41088867 C62.90595559 141.22813134 60.67907587 136.44404749 58.3125 131.625 C57.17516932 129.37269081 56.03580727 127.12140636 54.89453125 124.87109375 C54.32686035 123.74558105 53.75918945 122.62006836 53.17431641 121.46044922 C50.71284995 116.64878119 48.11431873 111.9173444 45.5 107.1875 C40.04410253 97.2691643 34.80906219 87.24407796 29.61328125 77.1875 C27.6564038 73.40287609 25.67873408 69.63126568 23.66796875 65.875 C23.22598145 65.04701904 22.78399414 64.21903809 22.32861328 63.3659668 C21.53091412 61.8753184 20.72907705 60.38686987 19.92138672 58.90161133 C16.30308096 52.12468293 13.56860097 45.34756893 10.5 38.1875 C10.17 75.1475 9.84 112.1075 9.5 150.1875 C5.8922392 151.9913804 4.8295524 152.44188226 1.09375 152.453125 C-0.14568359 152.45699219 -0.14568359 152.45699219 -1.41015625 152.4609375 C-2.69212891 152.44933594 -2.69212891 152.44933594 -4 152.4375 C-5.28197266 152.44910156 -5.28197266 152.44910156 -6.58984375 152.4609375 C-7.82927734 152.45707031 -7.82927734 152.45707031 -9.09375 152.453125 C-9.84333984 152.45086914 -10.59292969 152.44861328 -11.36523438 152.44628906 C-13.77468021 152.15420162 -15.36811659 151.31116191 -17.5 150.1875 C-17.61679037 131.4986568 -17.70496706 112.80988762 -17.75906086 94.1207552 C-17.78484495 85.44309098 -17.8199992 76.76565347 -17.87719727 68.08813477 C-17.92702619 60.52498432 -17.95928953 52.96199805 -17.97044247 45.39868802 C-17.97696219 41.39370633 -17.99228893 37.38919435 -18.02865028 33.38436317 C-18.06260214 29.61434935 -18.0730549 25.84499845 -18.06553841 22.07484627 C-18.06691335 20.69172309 -18.07685161 19.30857763 -18.09602737 17.9255867 C-18.234118 7.45201387 -18.234118 7.45201387 -16.38387108 4.26497459 C-15.02702332 2.88835144 -15.02702332 2.88835144 -12.5 1.1875 C-10.01505428 -1.29744572 -3.33536136 0.00196198 0 0 Z " fill="#FDFEFE" transform="translate(83.5,51.8125)"/>
<path d="M0 0 C4.88147488 1.81820117 9.47721899 4.16381614 14.125 6.5 C14.99938721 6.93779785 15.87377441 7.3755957 16.7746582 7.82666016 C23.72353681 11.32135949 30.61514414 14.91891337 37.46728516 18.59960938 C41.18385847 20.58200171 44.91419916 22.44230364 48.77075195 24.13916016 C49.96508598 24.66589828 49.96508598 24.66589828 51.18354797 25.20327759 C51.78297714 25.46619598 52.38240631 25.72911438 53 26 C54.19474878 81.42616302 54.19474878 81.42616302 54 103 C51.9795554 100.9795554 51.21037284 99.56838527 50.03125 97.00390625 C49.63429932 96.15304443 49.23734863 95.30218262 48.82836914 94.42553711 C48.39000732 93.48073486 47.95164551 92.53593262 47.5 91.5625 C36.58075187 68.39677129 24.64432556 45.69648373 12.25341797 23.28808594 C9.64477939 18.52607566 7.13538828 13.71074316 4.62109375 8.8984375 C3.10163561 6.02765931 3.10163561 6.02765931 1.28515625 3.7265625 C0 2 0 2 0 0 Z " fill="#1C9285" transform="translate(109,57)"/>
</svg>
