<svg width="60" height="60" viewBox="0 0 60 60" fill="none" xmlns="http://www.w3.org/2000/svg">
<path d="M55 30C55 16.2 43.8 5 30 5C16.2 5 5 16.2 5 30C5 43.8 16.2 55 30 55" stroke="#17B8A6" stroke-width="1.5" stroke-linecap="round" stroke-linejoin="round"/>
<path d="M20 7.5H22.5C17.625 22.1 17.625 37.9 22.5 52.5H20" stroke="#17B8A6" stroke-width="1.5" stroke-linecap="round" stroke-linejoin="round"/>
<path d="M37.5 7.5C39.925 14.8 41.15 22.4 41.15 30" stroke="#17B8A6" stroke-width="1.5" stroke-linecap="round" stroke-linejoin="round"/>
<path d="M7.5 40V37.5C14.8 39.925 22.4 41.1501 30 41.1501" stroke="#17B8A6" stroke-width="1.5" stroke-linecap="round" stroke-linejoin="round"/>
<path d="M7.5 22.5C22.1 17.625 37.9 17.625 52.5 22.5" stroke="#17B8A6" stroke-width="1.5" stroke-linecap="round" stroke-linejoin="round"/>
<path d="M45.5 53.5001C49.9183 53.5001 53.5 49.9183 53.5 45.5C53.5 41.0818 49.9183 37.5 45.5 37.5C41.0817 37.5 37.5 41.0818 37.5 45.5C37.5 49.9183 41.0817 53.5001 45.5 53.5001Z" stroke="#17B8A6" stroke-width="1.5" stroke-linecap="round" stroke-linejoin="round"/>
<path d="M55 55L52.5 52.5" stroke="#17B8A6" stroke-width="1.5" stroke-linecap="round" stroke-linejoin="round"/>
</svg>
