<?xml version="1.0" encoding="UTF-8"?>
<svg version="1.1" xmlns="http://www.w3.org/2000/svg" width="512" height="512">
<path d="M0 0 C0.90508301 -0.01780518 1.81016602 -0.03561035 2.74267578 -0.05395508 C9.68625328 -0.04553312 14.87216445 1.34864212 20.9375 4.875 C25.39944134 9.57812736 28.49827893 15.31002416 28.8125 21.875 C28.53276091 27.39110514 27.13671261 32.74116328 25.76196289 38.07250977 C17.51515327 70.05549666 25.21948178 104.31624872 41.70703125 132.28125 C45.06031268 137.73398826 48.96649569 142.56570888 53.25 147.3125 C54.30960937 148.56740234 54.30960937 148.56740234 55.390625 149.84765625 C75.37597576 173.10399068 105.72155748 188.4745003 136.25 191.3125 C152.44677012 192.23773102 167.69710769 191.30200086 183.40625 187.23828125 C191.40150208 185.31259554 197.68341651 185.5951902 204.98046875 189.6171875 C209.8749736 193.27332365 213.00335938 198.36147798 214.25 204.3125 C218.50581812 258.74828272 197.29461684 313.18399781 162.5 354.25 C126.01241482 396.62211405 73.29197811 423.82157565 17.3515625 428.03125 C-42.39135076 431.66757246 -98.22950595 412.91427365 -143.2265625 373.48828125 C-184.25921453 336.890059 -210.27494697 283.88660841 -213.62109375 228.91113281 C-215.61606634 188.69429892 -208.08926627 148.82869726 -188.75 113.3125 C-188.13640625 112.15878906 -187.5228125 111.00507813 -186.890625 109.81640625 C-159.73276525 60.38236816 -112.73448563 23.93465468 -58.78369141 8.1484375 C-39.45992901 2.82375036 -20.01436663 0.24946801 0 0 Z M-122.4375 95.6875 C-128.05993639 101.47652709 -132.95703607 107.83296349 -137.75 114.3125 C-138.1742627 114.88178223 -138.59852539 115.45106445 -139.03564453 116.03759766 C-164.70485826 150.97541376 -174.60640811 196.63278935 -168.625 239.3125 C-161.70591542 283.66869747 -137.56744379 324.2078378 -101.55859375 350.99560547 C-96.45223511 354.71370732 -91.19157279 358.10690899 -85.75 361.3125 C-85.06373535 361.71855469 -84.3774707 362.12460937 -83.67041016 362.54296875 C-64.79085726 373.52682141 -44.27731488 379.94226475 -22.75 383.3125 C-20.93242187 383.60060547 -20.93242187 383.60060547 -19.078125 383.89453125 C23.28227509 388.8759554 68.81802049 376.95291102 102.55419922 350.66601562 C114.74251814 340.93782096 125.6508695 330.65194989 135.25 318.3125 C136.03246094 317.31992187 136.81492187 316.32734375 137.62109375 315.3046875 C153.86380215 294.06220907 169.25 262.68889453 169.25 235.3125 C168.43547363 235.32297363 167.62094727 235.33344727 166.78173828 235.34423828 C112.61671303 235.94785473 66.4378153 222.1522553 26.75 184.1875 C-6.01331083 150.61345222 -21.10619941 105.93530155 -20.8125 59.625 C-20.80747028 58.22981933 -20.80291 56.83463689 -20.79882812 55.43945312 C-20.78714751 52.06375563 -20.77076833 48.68815174 -20.75 45.3125 C-58.67312881 45.3125 -96.15911329 70.48456328 -122.4375 95.6875 Z " fill="#000000" transform="translate(255.75,41.6875)"/>
</svg>
