<?xml version="1.0" encoding="UTF-8"?>
<svg version="1.1" xmlns="http://www.w3.org/2000/svg" width="512" height="512">
<path d="M0 0 C5.14030685 6.02950686 6.23365726 10.67639642 6.12945557 18.39317322 C6.13287327 19.32612058 6.13629097 20.25906794 6.13981223 21.22028643 C6.14638315 24.33589425 6.12442768 27.45063411 6.10253906 30.56616211 C6.10141042 32.80361918 6.10204478 35.04107773 6.10430908 37.27853394 C6.10545648 43.34623771 6.08194258 49.41362504 6.05401325 55.48125529 C6.02900413 61.82469118 6.02665797 68.16813436 6.02191162 74.51161194 C6.01089273 85.15664792 5.98590984 95.80155897 5.95019531 106.4465332 C5.91345471 117.40876691 5.88515301 128.37096908 5.86816406 139.33325195 C5.86711317 140.00946088 5.86606227 140.68566982 5.86497954 141.38236993 C5.85975922 144.77485946 5.85470443 148.16734922 5.84973192 151.55983913 C5.80829451 179.68450467 5.73756942 207.80904199 5.6484375 235.93359375 C6.27589402 235.93082837 6.90335054 235.92806299 7.5498209 235.92521381 C22.83231905 235.85889898 38.11477292 235.80928647 53.39737797 235.77815723 C60.78800188 235.76270241 68.17852962 235.7416395 75.5690918 235.70727539 C82.01231672 235.67733048 88.45547197 235.65800868 94.89876455 235.65132827 C98.30900699 235.64742459 101.71905015 235.63827961 105.12922859 235.61640358 C108.94052065 235.59462724 112.75139988 235.59162701 116.56274414 235.59301758 C118.250205 235.57683884 118.250205 235.57683884 119.97175598 235.56033325 C126.81562836 235.58735323 132.25878385 235.96258258 137.609375 240.65234375 C138.07601563 241.24015625 138.54265625 241.82796875 139.0234375 242.43359375 C139.50554687 243.02140625 139.98765625 243.60921875 140.484375 244.21484375 C143.13673917 248.13108616 142.79408721 252.20299437 142.78887939 256.73286438 C142.79333608 257.93704892 142.79333608 257.93704892 142.7978828 259.16556042 C142.80657786 261.86469723 142.80807872 264.56378973 142.80957031 267.26293945 C142.8141979 269.19450984 142.81922248 271.12607931 142.82461548 273.05764771 C142.83774692 278.31183724 142.84418586 283.56601399 142.84862614 288.82021737 C142.85155559 292.1016299 142.85566014 295.38303892 142.86013031 298.66444969 C142.87380703 308.92776896 142.88347291 319.19108024 142.8873322 329.45440799 C142.89181391 341.30838443 142.90936635 353.16224562 142.9383328 365.01618701 C142.95993697 374.17465429 142.9700358 383.33308912 142.97137332 392.49158162 C142.97242223 397.96353691 142.97834835 403.43538389 142.99619293 408.90731239 C143.01265177 414.05451377 143.01483973 419.20152515 143.00605392 424.34874344 C143.00528239 426.23776063 143.00964162 428.12678794 143.01951218 430.0157795 C143.03219983 432.59520404 143.02637232 435.17395245 143.01593018 437.75337219 C143.02801478 438.8738623 143.02801478 438.8738623 143.04034352 440.01698858 C142.98767875 445.58188609 141.73055906 449.6763847 137.9296875 453.796875 C137.341875 454.27511719 136.7540625 454.75335938 136.1484375 455.24609375 C135.560625 455.73722656 134.9728125 456.22835938 134.3671875 456.734375 C131.18796357 458.95260624 128.38169141 459.06038639 124.6320467 459.06781483 C123.58947187 459.07227267 122.54689704 459.07673051 121.47272903 459.08132344 C120.32353097 459.08113908 119.17433291 459.08095472 117.99031067 459.08076477 C116.77240977 459.08444146 115.55450886 459.08811815 114.29970187 459.09190625 C110.91284069 459.10103577 107.52602797 459.10564337 104.13915908 459.10829556 C100.48871029 459.11219801 96.83827553 459.1217764 93.18783569 459.13050842 C84.36880427 459.15027464 75.54977169 459.1603393 66.73072365 459.16923621 C62.57811297 459.17361891 58.42550357 459.17898577 54.27289391 459.18422508 C40.46935319 459.20123762 26.66581327 459.21573188 12.86226368 459.22297382 C9.27983919 459.22488373 5.6974147 459.22680406 2.11499023 459.22875977 C0.77939199 459.22948538 0.77939199 459.22948538 -0.58318803 459.23022565 C-15.00768628 459.23852629 -29.43210161 459.26386366 -43.85656365 459.29634044 C-58.66438142 459.32940866 -73.47215706 459.34742237 -88.28001195 459.35061806 C-96.59467256 459.3527834 -104.90921226 459.3615354 -113.2238369 459.38707924 C-120.30488441 459.40878302 -127.38578164 459.41683828 -134.46685865 459.40711246 C-138.07903839 459.40256675 -141.69090804 459.40446925 -145.30304527 459.4238739 C-149.22166475 459.44474294 -153.13985679 459.43452334 -157.05851746 459.42134094 C-158.19656191 459.43231019 -159.33460636 459.44327943 -160.507137 459.45458108 C-167.93630995 459.39419067 -173.50751642 458.41484624 -179.20939636 453.25109863 C-183.15321076 447.03176726 -182.99686806 441.10444394 -182.83984375 433.90234375 C-182.82923164 432.05485535 -182.82923164 432.05485535 -182.81840515 430.17004395 C-182.79053877 426.25726188 -182.72780891 422.34593936 -182.6640625 418.43359375 C-182.63613683 415.77215636 -182.61615869 413.11073268 -182.59570312 410.44921875 C-182.54073709 403.94351702 -182.45718599 397.43865969 -182.3515625 390.93359375 C-183.11878632 390.91434341 -183.88601013 390.89509308 -184.67648315 390.8752594 C-309.12453144 387.6884403 -309.12453144 387.6884403 -347.30078125 353.40234375 C-353.66506457 345.74095887 -353.92762722 339.06521371 -353.85949707 329.42138672 C-353.86411069 328.05074337 -353.8704667 326.68010497 -353.87840605 325.30947685 C-353.89505948 321.55753833 -353.88687142 317.8060083 -353.87446117 314.05406857 C-353.86539656 310.00218415 -353.87938739 305.95036909 -353.89038086 301.89849854 C-353.90815564 293.96661244 -353.90433075 286.03487786 -353.8927303 278.10298586 C-353.88369215 271.65586384 -353.88247363 265.20878425 -353.88682556 258.76165771 C-353.88743849 257.84363149 -353.88805143 256.92560526 -353.88868293 255.97976005 C-353.88996185 254.11473416 -353.8912587 252.24970828 -353.8925733 250.38468242 C-353.90397604 232.90147457 -353.89087018 215.41835066 -353.86937183 197.93515658 C-353.85150113 182.93784882 -353.85460532 167.9406649 -353.87304688 152.94335938 C-353.89445897 135.52217889 -353.90287744 118.10107195 -353.89059782 100.67988014 C-353.88932364 98.82176337 -353.88806616 96.96364658 -353.88682556 95.10552979 C-353.88620846 94.19133078 -353.88559136 93.27713176 -353.88495556 92.33522975 C-353.88150368 85.89678803 -353.88732751 79.45839299 -353.89674377 73.0199585 C-353.9079689 65.17228906 -353.90491292 57.32477964 -353.8836208 49.47712851 C-353.87311727 45.47406554 -353.86897653 41.47126924 -353.88221741 37.46820831 C-353.89416181 33.8016178 -353.8875456 30.13554043 -353.8663072 26.46899629 C-353.8597428 24.5188041 -353.87275898 22.56857612 -353.88653612 20.61842155 C-353.81152291 12.22261321 -352.60695189 5.61005638 -346.4140625 -0.56640625 C-337.32705643 -9.03603611 -325.95146523 -14.06881496 -314.3515625 -18.06640625 C-313.15007568 -18.48188721 -313.15007568 -18.48188721 -311.92431641 -18.90576172 C-228.56088475 -47.14506513 -121.65609604 -45.62549274 0 0 Z " fill="#31366D" transform="translate(361.3515625,45.06640625)"/>
<path d="M0 0 C11.6931565 -0.05030041 23.38630417 -0.09077537 35.07953453 -0.11948395 C41.68609829 -0.1357787 48.29260135 -0.15577383 54.89911938 -0.18584061 C60.99615601 -0.21284389 67.09304214 -0.22521591 73.19013691 -0.22562027 C75.38254596 -0.22811317 77.57495635 -0.23568311 79.76732731 -0.24884415 C82.71904482 -0.26577035 85.67018277 -0.26418963 88.62192822 -0.25774002 C89.46923598 -0.26695858 90.31654375 -0.27617714 91.18952751 -0.28567505 C97.22902824 -0.2429818 102.16426842 0.701919 106.85972118 4.81745529 C107.32636181 5.40526779 107.79300243 5.99308029 108.27378368 6.59870529 C108.99694775 7.48042404 108.99694775 7.48042404 109.73472118 8.37995529 C112.38708536 12.2961977 112.04443339 16.36810591 112.03922558 20.89797592 C112.04368226 22.10216046 112.04368226 22.10216046 112.04822898 23.33067197 C112.05692405 26.02980878 112.05842491 28.72890128 112.0599165 31.42805099 C112.06454409 33.35962138 112.06956867 35.29119085 112.07496166 37.22275925 C112.0880931 42.47694878 112.09453204 47.73112553 112.09897232 52.98532891 C112.10190177 56.26674144 112.10600633 59.54815047 112.11047649 62.82956123 C112.12415322 73.0928805 112.13381909 83.35619178 112.13767838 93.61951953 C112.14216009 105.47349597 112.15971254 117.32735716 112.18867898 129.18129855 C112.21028315 138.33976584 112.22038199 147.49820066 112.2217195 156.65669316 C112.22276841 162.12864845 112.22869454 167.60049543 112.24653912 173.07242393 C112.26299795 178.21962531 112.26518591 183.36663669 112.25640011 188.51385498 C112.25562857 190.40287217 112.2599878 192.29189948 112.26985836 194.18089104 C112.28254601 196.76031558 112.2767185 199.33906399 112.26627636 201.91848373 C112.27836097 203.03897384 112.27836097 203.03897384 112.29068971 204.18210012 C112.23802493 209.74699764 110.98090524 213.84149624 107.18003368 217.96198654 C106.59222118 218.44022873 106.00440868 218.91847092 105.39878368 219.41120529 C104.81097118 219.9023381 104.22315868 220.39347092 103.61753368 220.89948654 C100.43830976 223.11771778 97.63203759 223.22549794 93.88239288 223.23292637 C92.83981805 223.23738421 91.79724322 223.24184206 90.72307521 223.24643499 C89.57387715 223.24625062 88.42467909 223.24606626 87.24065685 223.24587631 C86.02275595 223.249553 84.80485505 223.25322969 83.55004805 223.25701779 C80.16318687 223.26614731 76.77637415 223.27075491 73.38950527 223.2734071 C69.73905647 223.27730955 66.08862171 223.28688794 62.43818188 223.29561996 C53.61915045 223.31538618 44.80011787 223.32545084 35.98106983 223.33434775 C31.82845916 223.33873045 27.67584976 223.34409731 23.52324009 223.34933662 C9.71969937 223.36634916 -4.08384055 223.38084342 -17.88739014 223.38808537 C-21.46981463 223.38999527 -25.05223911 223.3919156 -28.63466358 223.39387131 C-29.52506241 223.39435505 -30.41546124 223.39483879 -31.33284185 223.39533719 C-45.7573401 223.40363783 -60.18175543 223.4289752 -74.60621747 223.46145198 C-89.41403524 223.4945202 -104.22181087 223.51253392 -119.02966577 223.51572961 C-127.34432638 223.51789494 -135.65886608 223.52664694 -143.97349072 223.55219078 C-151.05453823 223.57389456 -158.13543546 223.58194983 -165.21651246 223.572224 C-168.8286922 223.5676783 -172.44056185 223.56958079 -176.05269909 223.58898544 C-179.97131856 223.60985449 -183.88951061 223.59963488 -187.80817127 223.58645248 C-188.94621572 223.59742173 -190.08426017 223.60839098 -191.25679082 223.61969262 C-197.59917451 223.56813653 -203.03871245 223.2359221 -208.10121632 219.09870529 C-212.6381275 214.05862553 -213.83583721 209.30328642 -213.73613453 202.67365646 C-213.74393448 201.86392222 -213.75173444 201.05418798 -213.75977075 200.21991634 C-213.77959658 197.5266958 -213.76396391 194.83490319 -213.74818897 192.14167404 C-213.7549693 190.20275172 -213.76387475 188.26383584 -213.77473927 186.3249321 C-213.79748971 181.07280875 -213.78871371 175.82117773 -213.77284384 170.56904602 C-213.76016287 165.0661425 -213.77193106 159.56328043 -213.77977467 154.06037521 C-213.7888648 144.82014543 -213.7768999 135.58011563 -213.75307178 126.33991623 C-213.72586184 115.66518979 -213.73467645 104.99094088 -213.76220381 94.31622601 C-213.78491189 85.14230106 -213.78808661 75.96851967 -213.77501047 66.79457569 C-213.76722535 61.31924299 -213.76614865 55.84413457 -213.78269291 50.36881638 C-213.79716302 45.22055264 -213.78706919 40.07290307 -213.75822163 34.92470551 C-213.75162444 33.03815225 -213.75348504 31.15154708 -213.76453495 29.26501465 C-213.77825647 26.68390268 -213.7609965 24.10474263 -213.73613453 21.52375412 C-213.75286494 20.41128201 -213.75286494 20.41128201 -213.76993334 19.27633572 C-213.66256548 13.50634229 -211.79952779 9.51741951 -208.10121632 5.09870529 C-203.88701949 1.51187295 -200.97268847 0.59746399 -195.48776722 0.57972336 C-194.16822481 0.56580929 -192.8486824 0.55189522 -191.48915386 0.53755951 C-190.03407514 0.54227591 -188.57899761 0.54737161 -187.12392139 0.55280685 C-185.57644654 0.54406803 -184.0289807 0.53358895 -182.48152828 0.52151489 C-178.2515148 0.49355061 -174.0217926 0.49030089 -169.79170012 0.49125099 C-165.27343427 0.48800188 -160.7552948 0.46195118 -156.23709583 0.43867111 C-147.48971759 0.39723783 -138.74241581 0.37690506 -129.99495345 0.36424446 C-119.92280153 0.34901991 -109.85074859 0.31403862 -99.77865219 0.27828455 C-81.58296775 0.21443559 -63.38729544 0.17229677 -45.19153023 0.14034891 C-30.12757528 0.11348433 -15.06383557 0.06487218 0 0 Z " fill="#AAC7C8" transform="translate(392.10121631622314,280.90129470825195)"/>
<path d="M0 0 C4.72929136 4.50602009 7.53702988 8.65942412 7.9375 15.375 C7.68915456 20.83859967 5.78701787 24.26433969 2.375 28.4375 C1.91351563 29.02144531 1.45203125 29.60539062 0.9765625 30.20703125 C-27.20970157 61.89869365 -92.29571084 64.11434639 -131.55743408 66.55960083 C-171.60279151 68.89557072 -211.92037068 68.42070338 -251.625 62.4375 C-252.78418945 62.26565186 -252.78418945 62.26565186 -253.96679688 62.09033203 C-259.20495893 61.30232032 -264.41529939 60.39429777 -269.625 59.4375 C-270.50671875 59.28087891 -271.3884375 59.12425781 -272.296875 58.96289062 C-297.48280415 54.42316168 -331.07472627 47.93009665 -348.01171875 26.69921875 C-350.87759902 22.32498044 -351.98183856 17.60273816 -351.625 12.4375 C-348.76015771 2.27861847 -339.79130225 -3.57910752 -331.1796875 -8.65625 C-325.23645341 -11.92584289 -319.02277326 -14.35768128 -312.625 -16.5625 C-311.42351318 -16.97798096 -311.42351318 -16.97798096 -310.19775391 -17.40185547 C-226.83432225 -45.64115888 -119.92953354 -44.12158649 0 0 Z " fill="#3A427E" transform="translate(359.625,43.5625)"/>
<path d="M0 0 C1.09573233 1.6435985 2.17333771 3.30216978 3.15625 5.015625 C13.98585274 23.02298769 40.32228405 30.24043842 59.625 35.125 C70.99290231 37.91678467 82.4481157 40.12425886 94 42 C95.0007959 42.1642749 96.0015918 42.3285498 97.03271484 42.49780273 C105.08303855 43.78216922 113.13895049 44.75310805 121.25 45.5625 C122.39339844 45.68818359 123.53679687 45.81386719 124.71484375 45.94335938 C140.15605699 47.4842537 155.39303023 47.52706152 171 48 C171 82.32 171 116.64 171 152 C137.90935029 150.81819108 137.90935029 150.81819108 126.25 149.75 C125.55718933 149.68719849 124.86437866 149.62439697 124.15057373 149.55969238 C36.11258861 141.46726438 36.11258861 141.46726438 6.05078125 114.46875 C0.57524936 107.87725256 -0.58253091 101.97269333 -0.45410156 93.54492188 C-0.45468567 92.52938232 -0.45526978 91.51384277 -0.45587158 90.4675293 C-0.45310046 87.13424665 -0.42205361 83.80187509 -0.390625 80.46875 C-0.38315918 78.14848316 -0.37746786 75.82820999 -0.37347412 73.50793457 C-0.35824482 67.41852225 -0.31898585 61.32949513 -0.2746582 55.24023438 C-0.23364739 49.01958425 -0.21545068 42.79887152 -0.1953125 36.578125 C-0.15248936 24.38524798 -0.08427047 12.1926561 0 0 Z " fill="#292D60" transform="translate(8,284)"/>
<path d="M0 0 C9.06148382 5.667267 14.60315818 12.39432346 18.3046875 22.44140625 C19.09143119 27.59512783 19.0819017 32.68348919 18.99609375 37.8828125 C18.99250456 39.34146251 18.99116177 40.80011958 18.9919281 42.2587738 C18.98727186 45.29560649 18.96270792 48.33135895 18.92211914 51.36791992 C18.87110716 55.22976069 18.85967991 59.09042299 18.86195469 62.95256138 C18.86113292 65.95809349 18.84458447 68.96337608 18.82295036 71.96882439 C18.81351159 73.39154113 18.80751707 74.81428565 18.80526924 76.23703194 C18.77946188 84.02894798 18.36394206 90.83011254 15.6502533 98.182724 C15.03042375 100.53714173 15.03042375 100.53714173 16.69337463 102.52613831 C17.22510788 103.15817673 17.75684113 103.79021515 18.3046875 104.44140625 C18.94409614 108.83734062 18.81656252 110.71237214 16.2421875 114.37890625 C12.59316661 116.94098475 10.67707346 117.08916713 6.3046875 116.44140625 C5.83417969 115.920625 5.36367188 115.39984375 4.87890625 114.86328125 C3.38641837 113.17866592 3.38641837 113.17866592 1.11328125 113.55078125 C0.33082031 113.7621875 -0.45164062 113.97359375 -1.2578125 114.19140625 C-2.43537109 114.49304688 -2.43537109 114.49304688 -3.63671875 114.80078125 C-5.729765 115.39144723 -5.729765 115.39144723 -7.6953125 116.44140625 C-19.79019092 117.58161555 -28.32348108 115.86925842 -38.33203125 108.5 C-40.59071872 106.53251521 -42.1651914 104.7365879 -43.8203125 102.25390625 C-44.29726563 101.55910156 -44.77421875 100.86429687 -45.265625 100.1484375 C-49.74178811 91.67307949 -50.13882114 83.83941058 -50.09375 74.3515625 C-50.0957764 72.99832503 -50.09869253 71.64508863 -50.10244751 70.29185486 C-50.10684583 67.46863308 -50.1005222 64.64569795 -50.08642578 61.82250977 C-50.06935148 58.23070676 -50.07917922 54.63957738 -50.09714317 51.04779911 C-50.10806321 48.25682135 -50.10449712 45.46599924 -50.0967598 42.6750164 C-50.09382695 40.71547374 -50.10282881 38.75592466 -50.1121521 36.79640198 C-50.01426102 24.25544903 -47.62766378 15.59313574 -38.84375 6.53125 C-28.371807 -3.29401922 -13.34175578 -6.44626921 0 0 Z " fill="#FDFEFE" transform="translate(356.6953125,335.55859375)"/>
<path d="M0 0 C9.26218506 5.32780557 14.06132529 12.61566069 17.6484375 22.5234375 C18.71794042 28.09719311 18.70152056 31.8959455 15.5859375 36.7109375 C11.91446836 38.97631208 9.89475141 39.14108316 5.6484375 38.5234375 C2.72191598 36.91439061 1.80320878 35.97426504 0.70703125 32.78125 C0.50207031 31.74742187 0.29710937 30.71359375 0.0859375 29.6484375 C-0.91278928 24.69822651 -1.96232375 20.40996312 -6.078125 17.16015625 C-11.17111309 14.61366221 -15.67577528 13.38630243 -21.3515625 14.5234375 C-25.65872055 16.28682102 -28.57448822 18.47924393 -31.3515625 22.2109375 C-33.03932249 27.80164246 -33.50506793 33.21642664 -30.8515625 38.5234375 C-30.3565625 39.1834375 -29.8615625 39.8434375 -29.3515625 40.5234375 C-29.3515625 41.1834375 -29.3515625 41.8434375 -29.3515625 42.5234375 C-28.7740625 42.8121875 -28.1965625 43.1009375 -27.6015625 43.3984375 C-26.25511616 44.07166067 -24.9225323 44.77580821 -23.625 45.5390625 C-20.66875273 46.81908709 -17.92619645 47.05080543 -14.7265625 47.3984375 C-5.24917448 48.67783568 3.18829391 51.11559558 9.6484375 58.5234375 C16.40510562 67.9640477 18.92317625 76.91800348 17.6484375 88.5234375 C15.18589337 97.60406898 10.84975756 105.44042418 2.63671875 110.30859375 C-6.92753135 115.18878409 -16.37517277 117.53767733 -27.05859375 114.83984375 C-29.3048167 113.89178818 -31.29132421 112.82528098 -33.3515625 111.5234375 C-34.39570313 110.88728516 -34.39570313 110.88728516 -35.4609375 110.23828125 C-43.40327368 104.87869725 -48.38605915 96.86763374 -50.3515625 87.5234375 C-51.07400336 82.61083964 -51.11433759 79.65604293 -48.2890625 75.4609375 C-44.56928612 73.00746797 -42.7282036 72.74189445 -38.3515625 73.5234375 C-35.25062693 75.59072788 -33.69006752 77.21932521 -32.7421875 80.87109375 C-32.43837954 82.60751338 -32.14552236 84.34588223 -31.86328125 86.0859375 C-30.8596606 90.86654271 -28.59974694 93.65261115 -24.6640625 96.3984375 C-18.86138974 98.36915655 -13.71244689 98.4120086 -8.0390625 95.9609375 C-3.98190565 93.63677779 -1.71511726 91.01464599 -0.3515625 86.5234375 C0.4164136 81.4755946 0.26045586 77.74747421 -2.0390625 73.1484375 C-6.5956591 67.97608461 -9.93563086 65.60063843 -16.76025391 64.97924805 C-24.29366738 64.25938095 -30.12482999 63.10309883 -36.3515625 58.5234375 C-37.4034375 57.8015625 -38.4553125 57.0796875 -39.5390625 56.3359375 C-46.97621618 48.89878382 -50.30149146 40.3515293 -50.9140625 29.9609375 C-50.76757251 20.80043001 -47.33138681 13.16788456 -41.38671875 6.23046875 C-29.84319748 -4.49014804 -14.16061697 -6.87150582 0 0 Z " fill="#FDFEFE" transform="translate(272.3515625,336.4765625)"/>
<path d="M0 0 C2.75329021 1.79562405 4.52627461 3.05254922 6 6 C6.09350611 9.02088464 6.12572242 12.01858122 6.11352539 15.03955078 C6.11367142 15.97618561 6.11381744 16.91282043 6.1139679 17.87783813 C6.11326944 20.98368622 6.10548015 24.08947485 6.09765625 27.1953125 C6.09579183 29.34479744 6.09436804 31.4942828 6.09336853 33.64376831 C6.08954522 39.30895149 6.07971651 44.97410915 6.06866455 50.63928223 C6.05844644 56.41707006 6.05387005 62.194862 6.04882812 67.97265625 C6.03809409 79.3151154 6.02101989 90.65755558 6 102 C6.82899055 101.98667633 6.82899055 101.98667633 7.67472839 101.9730835 C13.43351892 101.88450094 19.19211551 101.82422079 24.95141602 101.78027344 C27.0999335 101.76017414 29.2483964 101.73289007 31.39672852 101.69824219 C34.48727905 101.64965087 37.57710555 101.62701421 40.66796875 101.609375 C41.62648239 101.58872986 42.58499603 101.56808472 43.57255554 101.54681396 C47.84985019 101.54537899 50.33401306 101.61046742 54.0871582 103.80566406 C56.71829874 106.82400372 56.92934743 109.04345632 57 113 C55.89791992 116.39808026 55.07902124 116.94731917 52 119 C49.42628479 119.26742554 49.42628479 119.26742554 46.30688477 119.29052734 C44.55475426 119.3096669 44.55475426 119.3096669 42.76722717 119.32919312 C41.50470627 119.33141876 40.24218536 119.33364441 38.94140625 119.3359375 C36.99765358 119.3459227 36.99765358 119.3459227 35.01463318 119.35610962 C32.27168446 119.36808135 29.52886167 119.37179053 26.78588867 119.37060547 C23.27393354 119.37040218 19.76278679 119.39771298 16.25102329 119.43214989 C12.89780508 119.45975608 9.54473669 119.4585677 6.19140625 119.4609375 C4.93090958 119.47530853 3.6704129 119.48967957 2.37171936 119.50448608 C1.20048019 119.49833282 0.02924103 119.49217957 -1.17749023 119.48583984 C-2.20768784 119.48868988 -3.23788544 119.49153992 -4.29930115 119.49447632 C-7 119 -7 119 -9.33155823 117.63088989 C-11.99033032 113.4383932 -11.5562977 109.28450221 -11.51757812 104.41992188 C-11.5245874 103.34311661 -11.53159668 102.26631134 -11.53881836 101.15687561 C-11.55643792 97.59390553 -11.54476087 94.0317283 -11.53125 90.46875 C-11.53394376 87.99540046 -11.5378252 85.52205196 -11.54284668 83.04870605 C-11.54874713 77.86358565 -11.54016077 72.67874075 -11.52148438 67.49365234 C-11.49869476 60.84183044 -11.51181468 54.19092312 -11.53577423 47.53908539 C-11.55021714 42.43132652 -11.54563303 37.3237211 -11.53526306 32.21595764 C-11.53259163 29.76310653 -11.53588008 27.31024155 -11.54518127 24.85740662 C-11.55532158 21.43125416 -11.53987956 18.00615219 -11.51757812 14.58007812 C-11.52567505 13.56281143 -11.53377197 12.54554474 -11.54211426 11.49745178 C-11.45957612 4.66502569 -11.45957612 4.66502569 -9.18249512 1.36999512 C-5.93752049 -0.66693929 -3.75248626 -0.52666474 0 0 Z " fill="#FDFDFD" transform="translate(404,333)"/>
<path d="M0 0 C5.03235675 2.34150933 8.24947088 5.24112927 10.76953125 10.28125 C10.86081418 12.22169277 10.88705373 14.1653256 10.88305664 16.10791016 C10.88298111 17.32902496 10.88290558 18.55013977 10.88282776 19.80825806 C10.87772077 21.14560995 10.87250477 22.48296143 10.8671875 23.8203125 C10.86532265 25.18508859 10.86389906 26.54986534 10.86289978 27.91464233 C10.85907988 31.50840093 10.84925408 35.10211917 10.8381958 38.69586182 C10.82797036 42.36233982 10.82339973 46.02882435 10.81835938 49.6953125 C10.80763135 56.89064341 10.79056124 64.08594105 10.76953125 71.28125 C10.00769531 70.79527344 9.24585938 70.30929687 8.4609375 69.80859375 C5.21196995 67.96484003 3.45107858 67.73293444 -0.23046875 68.28125 C-2.77048888 69.65408423 -2.77048888 69.65408423 -4.23046875 72.28125 C-4.98047973 76.85631698 -4.4918276 80.22889494 -2.23046875 84.28125 C-8.50895225 84.78352868 -12.20090906 84.49204416 -17.23046875 80.28125 C-21.18518969 76.87579585 -22.99592249 73.73176723 -23.49789429 68.48721313 C-23.50932968 66.96334488 -23.50932968 66.96334488 -23.52099609 65.40869141 C-23.5337558 64.25043854 -23.5465155 63.09218567 -23.55966187 61.89883423 C-23.56188751 60.65604706 -23.56411316 59.41325989 -23.56640625 58.1328125 C-23.57306305 56.8469223 -23.57971985 55.5610321 -23.58657837 54.23617554 C-23.59852842 51.51776777 -23.60226155 48.79948686 -23.60107422 46.08105469 C-23.60087114 42.612046 -23.62816987 39.14385761 -23.66261864 35.67504311 C-23.69031614 32.34845494 -23.68903886 29.02201434 -23.69140625 25.6953125 C-23.70577728 24.45657379 -23.72014832 23.21783508 -23.73495483 21.94155884 C-23.69395551 14.18208479 -23.03664901 9.3423897 -17.59765625 3.5390625 C-11.86027631 -0.81654007 -7.1067416 -2.29008836 0 0 Z " fill="#ABC7C8" transform="translate(347.23046875,350.71875)"/>
</svg>
