<?xml version="1.0" encoding="UTF-8"?>
<svg version="1.1" xmlns="http://www.w3.org/2000/svg" width="256" height="256">
<path d="M0 0 C14.27374912 11.25968445 22.29061366 22.8534124 25 41 C26.38309637 53.73206518 22.89873526 67.52225339 14.95703125 77.58984375 C3.08277384 91.18086127 -8.38533747 98.30376434 -26.625 100.28515625 C-40.16609836 100.79740175 -53.038506 96.55451581 -63.1875 87.6875 C-75.70521876 75.7976292 -82.70338043 63.75411727 -83.375 46 C-82.68024788 27.63437877 -75.14721242 15.42461971 -62.0625 3.1875 C-45.2235284 -10.87254505 -18.29310562 -12.14517556 0 0 Z M-46 19 C-47.5778125 19.7425 -47.5778125 19.7425 -49.1875 20.5 C-55.33854193 25.96759283 -59.60712852 33.88623029 -60.23828125 42.1015625 C-60.40501377 50.01696936 -59.70070177 55.97648502 -56 63 C-55.505 64.051875 -55.01 65.10375 -54.5 66.1875 C-49.03240717 72.33854193 -41.11376971 76.60712852 -32.8984375 77.23828125 C-24.98303064 77.40501377 -19.02351498 76.70070177 -12 73 C-10.948125 72.505 -9.89625 72.01 -8.8125 71.5 C-2.66145807 66.03240717 1.60712852 58.11376971 2.23828125 49.8984375 C2.40501377 41.98303064 1.70070177 36.02351498 -2 29 C-2.495 27.948125 -2.99 26.89625 -3.5 25.8125 C-8.96759283 19.66145807 -16.88623029 15.39287148 -25.1015625 14.76171875 C-33.01696936 14.59498623 -38.97648502 15.29929823 -46 19 Z " fill="#FFFFFF" transform="translate(157,82)"/>
<path d="M0 0 C3.96120103 2.1329544 6.4898544 3.73849325 8 8 C8.3637277 10.96124256 8.41582804 13.89390197 8.4375 16.875 C8.47037109 17.66519531 8.50324219 18.45539063 8.53710938 19.26953125 C8.57564751 23.48069785 8.30384236 26.17605084 5.59765625 29.5078125 C2.07765836 32.88489318 0.0188202 33.39517355 -4.89453125 33.359375 C-8.61593453 32.72418186 -10.40312849 30.66020984 -13 28 C-14.68156955 24.63686091 -14.22674377 20.88233413 -14.25 17.1875 C-14.270625 16.37990234 -14.29125 15.57230469 -14.3125 14.74023438 C-14.3436572 9.98486617 -14.08503565 6.86184319 -11 3 C-7.33060635 0.12398876 -4.62619262 -0.66088466 0 0 Z " fill="#FFFFFF" transform="translate(131,202)"/>
<path d="M0 0 C0.79019531 -0.03287109 1.58039063 -0.06574219 2.39453125 -0.09960938 C6.60569785 -0.13814751 9.30105084 0.13365764 12.6328125 2.83984375 C16.00989318 6.35984164 16.52017355 8.4186798 16.484375 13.33203125 C15.84918186 17.05343453 13.78520984 18.84062849 11.125 21.4375 C7.76186091 23.11906955 4.00733413 22.66424377 0.3125 22.6875 C-0.89889648 22.7184375 -0.89889648 22.7184375 -2.13476562 22.75 C-6.89013383 22.7811572 -10.01315681 22.52253565 -13.875 19.4375 C-16.00238138 16.72325479 -16.80409561 14.9135723 -17.3125 11.5 C-16.75172496 7.57457473 -15.37211051 5.48952395 -12.875 2.4375 C-9.02989058 -0.33741887 -4.551558 0.03308887 0 0 Z " fill="#FFFFFF" transform="translate(218.875,116.5625)"/>
<path d="M0 0 C0.80759766 -0.020625 1.61519531 -0.04125 2.44726562 -0.0625 C7.20263383 -0.0936572 10.32565681 0.16496435 14.1875 3.25 C16.31488138 5.96424521 17.11659561 7.7739277 17.625 11.1875 C17.06422496 15.11292527 15.68461051 17.19797605 13.1875 20.25 C9.34239058 23.02491887 4.864058 22.65441113 0.3125 22.6875 C-0.87279297 22.73680664 -0.87279297 22.73680664 -2.08203125 22.78710938 C-6.29319785 22.82564751 -8.98855084 22.55384236 -12.3203125 19.84765625 C-15.69739318 16.32765836 -16.20767355 14.2688202 -16.171875 9.35546875 C-15.53668186 5.63406547 -13.47270984 3.84687151 -10.8125 1.25 C-7.44936091 -0.43156955 -3.69483413 0.02325623 0 0 Z " fill="#FFFFFF" transform="translate(36.8125,116.75)"/>
<path d="M0 0 C3.02508145 1.73602105 5.41790069 3.83580137 7 7 C7.15144814 9.95032632 7.23142405 12.86124618 7.25 15.8125 C7.270625 16.62009766 7.29125 17.42769531 7.3125 18.25976562 C7.3436572 23.01513383 7.08503565 26.13815681 4 30 C1.28575479 32.12738138 -0.5239277 32.92909561 -3.9375 33.4375 C-7.86292527 32.87672496 -9.94797605 31.49711051 -13 29 C-15.77491887 25.15489058 -15.40441113 20.676558 -15.4375 16.125 C-15.47037109 15.33480469 -15.50324219 14.54460938 -15.53710938 13.73046875 C-15.57564751 9.51930215 -15.30384236 6.82394916 -12.59765625 3.4921875 C-8.70885028 -0.2387271 -5.29977682 -0.90460012 0 0 Z " fill="#FFFFFF" transform="translate(132,21)"/>
<path d="M0 0 C1.31645175 1.24583748 2.62923261 2.49557077 3.9375 3.75 C4.906875 4.53375 5.87625 5.3175 6.875 6.125 C9.76769372 9.80661019 10.36217035 13.11129311 9.9375 17.75 C7.90669577 21.88682344 6.16872038 24.02616948 1.9375 25.75 C-1.37347582 26.35974406 -3.92822712 25.96677965 -7.0625 24.75 C-12.47079829 20.46189014 -18.09775769 15.57013997 -20.0625 8.75 C-19.9838065 4.34316387 -19.53253233 2.33436452 -16.75 -1.125 C-10.8506013 -5.78964083 -5.57753299 -4.83176116 0 0 Z " fill="#FFFFFF" transform="translate(197.0625,181.25)"/>
<path d="M0 0 C3.51038651 2.59463351 4.77811815 4.23728114 6 8.4375 C6 14.77566687 2.6271817 18.86458295 -1.625 23.3125 C-5.5577034 27.11334891 -8.39405268 29.36906027 -13.95703125 29.37890625 C-17.37719 28.7445747 -19.44974047 27.30145373 -22 25 C-24.1731152 21.39798713 -24.54604759 18.71719177 -24.00390625 14.5859375 C-21.63703197 8.48916405 -15.14465091 2.57232546 -9.359375 -0.3203125 C-5.87097763 -1.32524817 -3.49027603 -0.93489536 0 0 Z " fill="#FFFFFF" transform="translate(73,178)"/>
<path d="M0 0 C3.99307609 2.1501179 6.31350286 3.79541497 8 8 C8.60974406 11.31097582 8.21677965 13.86572712 7 17 C2.71189014 22.40829829 -2.17986003 28.03525769 -9 30 C-13.28454152 29.92349033 -15.41163441 29.43487892 -18.875 26.875 C-21.45927758 23.37862445 -22 21.33639416 -22 17 C-20.08195837 12.33108289 -17.58705067 9.20515832 -14 5.6875 C-13.13375 4.82511719 -12.2675 3.96273437 -11.375 3.07421875 C-7.7418612 -0.09880214 -4.70548349 -0.46132191 0 0 Z " fill="#FFFFFF" transform="translate(199,49)"/>
<path d="M0 0 C5.40829829 4.28810986 11.03525769 9.17986003 13 16 C12.92349033 20.28454152 12.43487892 22.41163441 9.875 25.875 C6.37862445 28.45927758 4.33639416 29 0 29 C-6.9562349 26.0859016 -14.0675541 20.70704722 -17.00390625 13.5546875 C-17.66820293 9.42905551 -17.17645904 7.3594536 -15.3125 3.5625 C-10.87653236 -1.35303171 -6.18158024 -2.39979777 0 0 Z " fill="#FFFFFF" transform="translate(66,50)"/>
</svg>
