<?xml version="1.0" encoding="UTF-8"?>
<svg version="1.1" xmlns="http://www.w3.org/2000/svg" width="512" height="512">
<path d="M0 0 C1.45108658 0.00273422 1.45108658 0.00273422 2.93148804 0.00552368 C17.26440977 0.05095174 31.21023917 0.55983928 45.3125 3.3125 C46.65803955 3.55395752 46.65803955 3.55395752 48.03076172 3.80029297 C107.84088904 14.62287989 165.35495829 48.68064457 202.3125 97.3125 C202.72918945 97.85277832 203.14587891 98.39305664 203.57519531 98.94970703 C211.2584873 108.9447116 218.00092968 119.40459036 224.3125 130.3125 C224.70679199 130.98974121 225.10108398 131.66698242 225.50732422 132.36474609 C238.68961173 155.2833756 247.29510918 180.85822563 252.625 206.6875 C252.77243652 207.39817627 252.91987305 208.10885254 253.07177734 208.84106445 C256.05705422 224.48314535 256.6888264 240.11951323 256.625 256 C256.62284485 256.96838806 256.6206897 257.93677612 256.61846924 258.93450928 C256.56738903 273.25143438 256.18100217 287.24098845 253.3125 301.3125 C253.10850586 302.33859375 252.90451172 303.3646875 252.69433594 304.421875 C244.78438621 343.29231207 229.39463881 379.65540631 205.3125 411.3125 C204.80589844 411.9813623 204.29929687 412.65022461 203.77734375 413.33935547 C189.17327568 432.37680135 171.9210583 449.48731757 152.3125 463.3125 C151.00732422 464.27736328 151.00732422 464.27736328 149.67578125 465.26171875 C141.58998301 471.1510353 132.92064814 476.23296858 124.3125 481.3125 C123.6927832 481.68020508 123.07306641 482.04791016 122.43457031 482.42675781 C97.27945705 497.1582475 68.02175051 505.96940142 39.3125 510.3125 C38.18787354 510.48982666 37.06324707 510.66715332 35.90454102 510.84985352 C24.35059556 512.50125708 12.90784453 512.66920897 1.25 512.625 C0.25393738 512.62317719 -0.74212524 512.62135437 -1.76837158 512.61947632 C-16.28080287 512.57473255 -30.41059519 512.11719043 -44.6875 509.3125 C-45.58307617 509.15152832 -46.47865234 508.99055664 -47.40136719 508.82470703 C-107.21340465 498.00365541 -164.72893264 463.94570506 -201.6875 415.3125 C-202.10418945 414.77222168 -202.52087891 414.23194336 -202.95019531 413.67529297 C-210.6334873 403.6802884 -217.37592968 393.22040964 -223.6875 382.3125 C-224.08179199 381.63525879 -224.47608398 380.95801758 -224.88232422 380.26025391 C-238.06461173 357.3416244 -246.67010918 331.76677437 -252 305.9375 C-252.14743652 305.22682373 -252.29487305 304.51614746 -252.44677734 303.78393555 C-255.43213787 288.14141634 -256.0623098 272.50580394 -256 256.625 C-255.99817719 255.65760895 -255.99635437 254.6902179 -255.99447632 253.69351196 C-255.94904826 239.36059023 -255.44016072 225.41476083 -252.6875 211.3125 C-252.44604248 209.96696045 -252.44604248 209.96696045 -252.19970703 208.59423828 C-241.37712011 148.78411096 -207.31935543 91.27004171 -158.6875 54.3125 C-158.14722168 53.89581055 -157.60694336 53.47912109 -157.05029297 53.04980469 C-147.0552884 45.3665127 -136.59540964 38.62407032 -125.6875 32.3125 C-125.01025879 31.91820801 -124.33301758 31.52391602 -123.63525391 31.11767578 C-100.7166244 17.93538827 -75.14177437 9.32989082 -49.3125 4 C-48.60182373 3.85256348 -47.89114746 3.70512695 -47.15893555 3.55322266 C-31.51641634 0.56786213 -15.88080394 -0.0623098 0 0 Z " fill="#0078CF" transform="translate(255.6875,-0.3125)"/>
<path d="M0 0 C0.86625 0.19335938 1.7325 0.38671875 2.625 0.5859375 C24.79100183 6.35209338 44.34690061 19.66954418 59 37 C57.67908291 40.05766342 56.46795581 41.69020511 53.71875 43.55859375 C52.71606079 44.25154541 52.71606079 44.25154541 51.69311523 44.95849609 C50.96938721 45.44656738 50.24565918 45.93463867 49.5 46.4375 C47.95891588 47.50025946 46.41857652 48.56409951 44.87890625 49.62890625 C44.07855957 50.17949707 43.27821289 50.73008789 42.45361328 51.29736328 C38.40987279 54.10343753 34.42365236 56.98797054 30.4375 59.875 C29.35082031 60.65895142 29.35082031 60.65895142 28.2421875 61.45874023 C27.54222656 61.96477783 26.84226562 62.47081543 26.12109375 62.9921875 C25.44159668 63.48299805 24.76209961 63.97380859 24.06201172 64.47949219 C22.62657331 65.53797081 21.20730938 66.61859091 19.80126953 67.71582031 C19.09470215 68.26592773 18.38813477 68.81603516 17.66015625 69.3828125 C17.02859619 69.88441895 16.39703613 70.38602539 15.74633789 70.90283203 C14 72 14 72 11 72 C10.484375 70.824375 9.96875 69.64875 9.4375 68.4375 C4.98235618 59.60537279 -1.83235153 55.36555555 -10.80078125 51.92578125 C-19.06930396 49.53305856 -27.73687511 49.90470666 -35.5625 53.5 C-42.4529539 57.42282907 -46.45451942 62.53325695 -49 70 C-50.16647585 77.99342922 -48.64917403 84.40990865 -44 91 C-37.04595172 98.61921811 -27.66703487 104.05849275 -18.3125 108.1875 C-17.47871826 108.56132812 -16.64493652 108.93515625 -15.78588867 109.3203125 C-8.56823849 112.47783226 -1.19462677 115.15214084 6.2204895 117.79785156 C22.32757342 123.54747202 37.00606178 129.56023871 50 141 C51.010625 141.763125 52.02125 142.52625 53.0625 143.3125 C57.87962893 147.71966051 63.05749152 153.11498304 66 159 C59.16636734 190.136393 42.15414189 220.82098791 23 246 C22.49339844 246.6688623 21.98679687 247.33772461 21.46484375 248.02685547 C18.15833243 252.33712915 14.70458411 256.48443373 11.1171875 260.56347656 C9.59270876 262.31789283 8.09585957 264.09645554 6.6171875 265.88964844 C-9.19138702 284.89498745 -9.19138702 284.89498745 -19.01171875 286.53515625 C-25.13919303 286.89719606 -30.98021973 286.06931624 -37 285 C-38.90845918 284.73026337 -40.81730955 284.46327836 -42.7265625 284.19921875 C-52.60351768 282.68558932 -61.89532156 280.17859401 -71 276 C-71.98871094 275.57074219 -72.97742188 275.14148438 -73.99609375 274.69921875 C-82.23928813 270.89384293 -89.06665155 265.7725818 -96 260 C-96.89976562 259.25492187 -97.79953125 258.50984375 -98.7265625 257.7421875 C-108.47171538 249.3245477 -116.46953716 239.08577207 -123 228 C-123 227.34 -123 226.68 -123 226 C-120.86958516 224.55705194 -118.7517004 223.249386 -116.52734375 221.96484375 C-115.51529625 221.36851891 -115.51529625 221.36851891 -114.48280334 220.76014709 C-112.30504589 219.47895235 -110.12149547 218.2080263 -107.9375 216.9375 C-106.52238027 216.10811453 -105.10766202 215.27804366 -103.69335938 214.44726562 C-101.58037145 213.20635962 -99.46702019 211.96611689 -97.35189819 210.72885132 C-90.19988578 206.54356902 -83.09638737 202.27873261 -76 198 C-73.57730201 200.3557982 -71.74834709 202.74342938 -69.875 205.5625 C-61.89655885 216.98164389 -52.11832227 227.63927918 -38 231 C-34.03797839 231.28068208 -30.09541968 231.27901647 -26.125 231.25 C-24.54912109 231.26160156 -24.54912109 231.26160156 -22.94140625 231.2734375 C-12.04684551 231.24616701 -2.83781376 228.85516003 6.3125 222.8125 C12.82728676 215.99469991 14.50269851 207.20479749 14.40234375 198.0390625 C13.53769055 191.50799267 9.33781908 187.96888462 4.3671875 184.09375 C0.00817462 180.88788872 -4.5677438 178.34179591 -9.375 175.875 C-10.27202637 175.40908447 -11.16905273 174.94316895 -12.09326172 174.46313477 C-19.34257055 170.74441385 -26.71269457 167.31691107 -34.125 163.9375 C-50.34970216 156.53000228 -65.88286935 148.99453354 -80 138 C-80.77730469 137.40703125 -81.55460937 136.8140625 -82.35546875 136.203125 C-95.22859439 125.74526664 -101.9276293 110.89100617 -103.77294922 94.69970703 C-106.00790711 68.12533676 -103.45948105 42.16737084 -86 21 C-85.02353516 19.73349609 -85.02353516 19.73349609 -84.02734375 18.44140625 C-74.75925003 7.28040707 -58.63255804 -1.17498702 -44.22558594 -2.82128906 C-29.29456056 -4.02022616 -14.57571919 -3.48125436 0 0 Z " fill="#F0F1F1" transform="translate(438,165)"/>
<path d="M0 0 C71.94 0 143.88 0 218 0 C218 16.83 218 33.66 218 51 C191.6 51 165.2 51 138 51 C138 124.59 138 198.18 138 274 C118.86 274 99.72 274 80 274 C80 200.41 80 126.82 80 51 C53.6 51 27.2 51 0 51 C0 34.17 0 17.34 0 0 Z " fill="#F1F1F1" transform="translate(83,170)"/>
</svg>
