<?xml version="1.0" encoding="UTF-8"?>
<svg version="1.1" xmlns="http://www.w3.org/2000/svg" width="512" height="512">
<path d="M0 0 C168.96 0 337.92 0 512 0 C512 128.7 512 257.4 512 390 C343.04 390 174.08 390 0 390 C0 261.3 0 132.6 0 0 Z " fill="#FEFEFE" transform="translate(0,61)"/>
<path d="M0 0 C163.68 0 327.36 0 496 0 C496 19.14 496 38.28 496 58 C332.32 58 168.64 58 0 58 C0 38.86 0 19.72 0 0 Z " fill="#FEFEFE" transform="translate(8,69)"/>
<path d="M0 0 C168.96 0 337.92 0 512 0 C512 128.7 512 257.4 512 390 C343.04 390 174.08 390 0 390 C0 261.3 0 132.6 0 0 Z M8 8 C8 27.14 8 46.28 8 66 C171.68 66 335.36 66 504 66 C504 46.86 504 27.72 504 8 C340.32 8 176.64 8 8 8 Z M8 74 C8 175.64 8 277.28 8 382 C171.68 382 335.36 382 504 382 C504 280.36 504 178.72 504 74 C340.32 74 176.64 74 8 74 Z " fill="#AAC1CE" transform="translate(0,61)"/>
<path d="M0 0 C14 0 14 0 17.23828125 3.19140625 C18.32885742 5.28198242 18.32885742 5.28198242 19.3125 7.5625 C20.10507225 9.1336705 20.89937753 10.70396784 21.6953125 12.2734375 C22.0759082 13.0684668 22.45650391 13.86349609 22.84863281 14.68261719 C24.57491142 18.15713723 26.62495509 21.4053941 28.6875 24.6875 C32.97130904 31.6330933 36.29330545 38.5866109 40 46 C40 30.82 40 15.64 40 0 C43.63 0 47.26 0 51 0 C51 21.12 51 42.24 51 64 C38 64 38 64 35.12231445 61.6394043 C34.25159302 59.99838745 34.25159302 59.99838745 33.36328125 58.32421875 C33.02805954 57.72559525 32.69283783 57.12697174 32.34745789 56.51020813 C31.2873368 54.59126927 30.30071981 52.64425784 29.3125 50.6875 C28.64191083 49.44870292 27.96679991 48.21234252 27.28710938 46.97851562 C25.13797001 43.01418325 23.07068545 39.00586982 21 35 C17.7 28.73 14.4 22.46 11 16 C11 32.17 11 48.34 11 65 C7.37 65 3.74 65 0 65 C0 43.55 0 22.1 0 0 Z " fill="#050505" transform="translate(267,247)"/>
<path d="M0 0 C1.22493164 -0.01836914 1.22493164 -0.01836914 2.47460938 -0.03710938 C10.50348921 -0.05630192 17.21682786 1.04037443 23.6875 6.1875 C28.68429371 11.8595361 29.04335481 15.38455391 28.9609375 22.8515625 C28.51989444 28.23228789 27.01613413 31.98854767 23.07421875 35.7109375 C15.14615488 41.79322154 7.36040948 41.37000773 -2.3125 41.1875 C-2.3125 49.1075 -2.3125 57.0275 -2.3125 65.1875 C-6.2725 65.1875 -10.2325 65.1875 -14.3125 65.1875 C-14.3125 44.0675 -14.3125 22.9475 -14.3125 1.1875 C-9.36918935 0.19883787 -5.00219434 0.00389276 0 0 Z " fill="#050505" transform="translate(218.3125,245.8125)"/>
<path d="M0 0 C1.48831242 0.00667405 2.97660807 0.01863442 4.46484375 0.03515625 C5.22345703 0.03966797 5.98207031 0.04417969 6.76367188 0.04882812 C8.64326246 0.06064945 10.52281274 0.07858547 12.40234375 0.09765625 C14.77449375 7.28155443 17.1398685 14.46765846 19.50073242 21.65527344 C20.30324096 24.09588054 21.10725124 26.53599441 21.9128418 28.97558594 C23.07614057 32.49933677 24.2338756 36.0248758 25.390625 39.55078125 C25.74699539 40.62628235 26.10336578 41.70178345 26.47053528 42.80987549 C28.77092901 49.84493158 30.67816482 56.89903233 32.40234375 64.09765625 C28.11234375 64.09765625 23.82234375 64.09765625 19.40234375 64.09765625 C18.56555098 61.47371319 17.73277433 58.84861241 16.90234375 56.22265625 C16.66386719 55.47628906 16.42539063 54.72992188 16.1796875 53.9609375 C14.40234375 48.32421875 14.40234375 48.32421875 14.40234375 46.09765625 C7.47234375 46.09765625 0.54234375 46.09765625 -6.59765625 46.09765625 C-6.92765625 47.74765625 -7.25765625 49.39765625 -7.59765625 51.09765625 C-8.26250335 53.37522482 -8.95115998 55.64594235 -9.66015625 57.91015625 C-10.02238281 59.07160156 -10.38460937 60.23304688 -10.7578125 61.4296875 C-11.17353516 62.75033203 -11.17353516 62.75033203 -11.59765625 64.09765625 C-15.55765625 64.09765625 -19.51765625 64.09765625 -23.59765625 64.09765625 C-23.02260263 58.82633138 -21.71706256 54.18890391 -19.84765625 49.22265625 C-17.76005068 43.49781143 -15.83682629 37.7686881 -14.16015625 31.91015625 C-12.15936402 24.93895742 -10.03667853 18.01215146 -7.84765625 11.09765625 C-7.54158447 10.1228833 -7.2355127 9.14811035 -6.92016602 8.14379883 C-6.63326904 7.24169678 -6.34637207 6.33959473 -6.05078125 5.41015625 C-5.79458008 4.60191406 -5.53837891 3.79367188 -5.27441406 2.9609375 C-4.07381159 -0.34461735 -3.86211669 0.10483487 0 0 Z " fill="#060606" transform="translate(112.59765625,246.90234375)"/>
<path d="M0 0 C12.21 0 24.42 0 37 0 C37 3.3 37 6.6 37 10 C28.75 10 20.5 10 12 10 C12 15.28 12 20.56 12 26 C19.92 26 27.84 26 36 26 C36 29.3 36 32.6 36 36 C28.08 36 20.16 36 12 36 C12 41.94 12 47.88 12 54 C20.91 54 29.82 54 39 54 C39 57.3 39 60.6 39 64 C26.13 64 13.26 64 0 64 C0 42.88 0 21.76 0 0 Z " fill="#0B0B0B" transform="translate(332,247)"/>
<path d="M0 0 C0.74701172 -0.01224609 1.49402344 -0.02449219 2.26367188 -0.03710938 C6.80272437 -0.04906474 10.41249142 0.46798145 14.6875 2.1875 C14.86692163 6.13477588 14.78100689 8.7855513 12.6875 12.1875 C10.9859375 11.6925 10.9859375 11.6925 9.25 11.1875 C3.56674013 9.78683844 -1.76067085 9.23056407 -7.3125 11.3125 C-9.52678985 13.10830593 -9.52678985 13.10830593 -10.375 16.0625 C-10.29283182 20.17090892 -9.15326755 21.2687146 -6.3125 24.1875 C-3.12217426 25.81814714 -3.12217426 25.81814714 0.4375 27.0625 C7.41544073 29.81652102 13.03871456 33.10395578 17.1875 39.5 C18.2068422 44.97896433 18.36659248 50.11027595 16.625 55.4375 C12.67427706 61.04497772 8.38482219 64.46351552 1.6875 66.1875 C-1.11032574 66.47890361 -3.87610417 66.51990589 -6.6875 66.5 C-7.81369751 66.49806641 -7.81369751 66.49806641 -8.96264648 66.49609375 C-14.32282687 66.40280224 -18.48690571 65.65163326 -23.3125 63.1875 C-23.49192163 59.24022412 -23.40600689 56.5894487 -21.3125 53.1875 C-20.31605469 53.51105469 -19.31960937 53.83460938 -18.29296875 54.16796875 C-14.37798045 55.28245447 -10.70399592 55.48762691 -6.625 55.5 C-5.34238281 55.51675781 -4.05976563 55.53351563 -2.73828125 55.55078125 C0.83366123 55.17200058 2.2826119 54.81859044 4.6875 52.1875 C5.37923454 48.07880142 5.37923454 48.07880142 4.6875 44.1875 C0.40939924 39.9586672 -5.01518564 37.79081622 -10.4296875 35.36328125 C-15.92945975 32.75867213 -19.5254966 29.7615068 -22.3125 24.1875 C-22.81272035 18.70967719 -23.04929608 13.80845137 -20.75 8.75 C-14.39945134 2.07378218 -9.22188703 0.00783508 0 0 Z " fill="#050505" transform="translate(175.3125,245.8125)"/>
<path d="M0 0 C16.17 0 32.34 0 49 0 C49 2.97 49 5.94 49 9 C42.73 9 36.46 9 30 9 C30 27.48 30 45.96 30 65 C26.04 65 22.08 65 18 65 C18 46.85 18 28.7 18 10 C12.06 10 6.12 10 0 10 C0 6.7 0 3.4 0 0 Z " fill="#080808" transform="translate(376,247)"/>
<path d="M0 0 C4.10746873 1.77367968 6.69875485 4.16459142 9 8 C9.72242558 11.9572868 9.40528319 15.06144946 7.8125 18.75 C3.11845326 24.57709251 3.11845326 24.57709251 -1.11328125 25.421875 C-5.22205023 25.67047279 -8.13094271 25.37346104 -11.4375 22.8125 C-14.72973638 19.19906983 -15.76296856 16.8567463 -16.375 12.0625 C-15.79764283 7.34741648 -13.42526112 4.52706548 -10.25 1.125 C-6.87744148 -0.56127926 -3.65142378 -0.53204378 0 0 Z " fill="#35BFA7" transform="translate(134,86)"/>
<path d="M0 0 C5.13656401 1.81290495 7.56523417 4.13046834 10 9 C10.60938288 13.26568014 10.30540652 15.38918695 8.375 19.25 C4.85074817 23.33071264 1.84607737 24.69791461 -3.4375 25.5625 C-8.18913722 24.81224149 -10.89129113 22.60926369 -14 19 C-15.2517847 15.24464589 -15.77373976 11.88289586 -15 8 C-11.01526201 1.58763702 -7.60059392 -0.50670626 0 0 Z " fill="#28B7D2" transform="translate(92,86)"/>
<path d="M0 0 C2.80189603 1.78302475 4.04509198 2.94451736 5.75 5.75 C6.58356677 10.78894868 6.54319591 15.31049632 4.0625 19.8125 C0.49910294 22.79804889 -2.07513693 23.62183312 -6.6875 24.125 C-10.96478563 23.67475941 -12.97307541 22.49347175 -16.25 19.75 C-19.00174967 15.34532219 -18.91954935 10.78795062 -18.25 5.75 C-14.02416083 -1.49429572 -7.78127232 -2.99279704 0 0 Z " fill="#E05262" transform="translate(54.25,87.25)"/>
<path d="M0 0 C12.96296296 0 12.96296296 0 18 4 C20.42195377 7.6909647 20.19309572 10.56826381 19.61328125 14.80859375 C18.65775922 18.22291133 16.76434517 19.89383225 14 22 C11 23 11 23 0 23 C0 15.41 0 7.82 0 0 Z " fill="#F8F8F8" transform="translate(216,255)"/>
<path d="M0 0 C2.36926518 4.47542058 3.68118333 9.16425038 5.125 14 C5.40214844 14.90234375 5.67929688 15.8046875 5.96484375 16.734375 C6.22652344 17.60578125 6.48820312 18.4771875 6.7578125 19.375 C6.9964502 20.16648437 7.23508789 20.95796875 7.48095703 21.7734375 C8 24 8 24 8 28 C2.72 28 -2.56 28 -8 28 C-7.4121875 26.081875 -7.4121875 26.081875 -6.8125 24.125 C-4.40696699 16.1219767 -2.22020518 8.05592234 0 0 Z " fill="#F2F2F2" transform="translate(116,256)"/>
<path d="M0 0 C2 1.625 2 1.625 3 4 C2.87988224 7.42335626 2.60726153 9.95416069 0.875 12.9375 C-2.22289358 14.69297303 -4.52844534 14.48723574 -8 14 C-10.5 11.9375 -10.5 11.9375 -12 9 C-12 5.19715329 -11.7968187 2.98069994 -9.375 0 C-5.88418213 -1.46981805 -3.60851044 -0.98413921 0 0 Z " fill="#0B0B0B" transform="translate(254,298)"/>
</svg>
